<svg width="143" height="196" viewBox="0 0 143 196" fill="none" xmlns="http://www.w3.org/2000/svg">
<path d="M0.0854492 0.363159V39.7704H36.2697V117.88H71.5695V137.261H107.271V195.403H143V137.261V126.132V117.88V39.7704V0.363159H0.0854492Z" fill="#4285FA"/>
<mask id="mask0_44_7950" style="mask-type:luminance" maskUnits="userSpaceOnUse" x="0" y="0" width="143" height="196">
<path d="M0.0854492 0.363159V39.7704H36.2429V117.88H71.5427V137.261H107.271V195.403H143V137.261V126.132V117.88V39.7704V0.363159H0.0854492Z" fill="white"/>
</mask>
<g mask="url(#mask0_44_7950)">
<path d="M72.1589 236.836H144.099V158.022H72.1589L72.1589 236.836Z" stroke="#80B4FE" stroke-miterlimit="10"/>
<path d="M108.102 236.836C127.968 236.836 144.072 219.193 144.072 197.429C144.072 175.665 127.968 158.022 108.102 158.022C88.2365 158.022 72.1323 175.665 72.1323 197.429C72.1323 219.193 88.2365 236.836 108.102 236.836Z" stroke="#80B4FE" stroke-miterlimit="10"/>
<path d="M108.102 158.022V236.836" stroke="#80B4FE" stroke-miterlimit="10"/>
<path d="M0.192596 236.836H72.1323L72.1323 158.022H0.192596L0.192596 236.836Z" stroke="#80B4FE" stroke-miterlimit="10"/>
<path d="M36.1625 236.836C56.0281 236.836 72.1324 219.193 72.1324 197.429C72.1324 175.665 56.0281 158.022 36.1625 158.022C16.2969 158.022 0.192627 175.665 0.192627 197.429C0.192627 219.193 16.2969 236.836 36.1625 236.836Z" stroke="#80B4FE" stroke-miterlimit="10"/>
<path d="M36.1626 158.022V236.836" stroke="#80B4FE" stroke-miterlimit="10"/>
<path d="M-71.7471 236.836H0.192627L0.192627 158.022H-71.7471L-71.7471 236.836Z" stroke="#80B4FE" stroke-miterlimit="10"/>
<path d="M-35.8041 236.836C-15.9385 236.836 0.165833 219.193 0.165833 197.429C0.165833 175.665 -15.9385 158.022 -35.8041 158.022C-55.6697 158.022 -71.7739 175.665 -71.7739 197.429C-71.7739 219.193 -55.6697 236.836 -35.8041 236.836Z" stroke="#80B4FE" stroke-miterlimit="10"/>
<path d="M72.1589 158.022H144.099V79.207L72.1589 79.207L72.1589 158.022Z" stroke="#80B4FE" stroke-miterlimit="10"/>
<path d="M108.102 158.022C127.968 158.022 144.072 140.378 144.072 118.614C144.072 96.8503 127.968 79.2071 108.102 79.2071C88.2365 79.2071 72.1323 96.8503 72.1323 118.614C72.1323 140.378 88.2365 158.022 108.102 158.022Z" stroke="#80B4FE" stroke-miterlimit="10"/>
<path d="M144.072 118.614H72.1323" stroke="#80B4FE" stroke-miterlimit="10"/>
<path d="M108.102 79.1777V158.022" stroke="#80B4FE" stroke-miterlimit="10"/>
<path d="M0.192596 158.022H72.1323L72.1323 79.207L0.192596 79.207L0.192596 158.022Z" stroke="#80B4FE" stroke-miterlimit="10"/>
<path d="M36.1625 158.022C56.0281 158.022 72.1324 140.378 72.1324 118.614C72.1324 96.8503 56.0281 79.2071 36.1625 79.2071C16.2969 79.2071 0.192627 96.8503 0.192627 118.614C0.192627 140.378 16.2969 158.022 36.1625 158.022Z" stroke="#80B4FE" stroke-miterlimit="10"/>
<path d="M72.1323 118.614H0.165771" stroke="#80B4FE" stroke-miterlimit="10"/>
<path d="M36.1626 79.1777V158.022" stroke="#80B4FE" stroke-miterlimit="10"/>
<path d="M-71.7471 158.022H0.192627L0.192627 79.207L-71.7471 79.207L-71.7471 158.022Z" stroke="#80B4FE" stroke-miterlimit="10"/>
<path d="M-35.8041 158.022C-15.9385 158.022 0.165833 140.378 0.165833 118.614C0.165833 96.8503 -15.9385 79.2071 -35.8041 79.2071C-55.6697 79.2071 -71.7739 96.8503 -71.7739 118.614C-71.7739 140.378 -55.6697 158.022 -35.8041 158.022Z" stroke="#80B4FE" stroke-miterlimit="10"/>
<path d="M0.165831 118.614H-71.7739" stroke="#80B4FE" stroke-miterlimit="10"/>
<path d="M72.1589 79.1777L144.099 79.1777V0.363152L72.1589 0.363152L72.1589 79.1777Z" stroke="#80B4FE" stroke-miterlimit="10"/>
<path d="M108.102 79.1777C127.968 79.1777 144.072 61.5345 144.072 39.7704C144.072 18.0064 127.968 0.363159 108.102 0.363159C88.2365 0.363159 72.1323 18.0064 72.1323 39.7704C72.1323 61.5345 88.2365 79.1777 108.102 79.1777Z" stroke="#80B4FE" stroke-miterlimit="10"/>
<path d="M144.072 39.7704H72.1323" stroke="#80B4FE" stroke-miterlimit="10"/>
<path d="M108.102 0.363159V79.1777" stroke="#80B4FE" stroke-miterlimit="10"/>
<path d="M0.192596 79.1777L72.1323 79.1777L72.1323 0.363152L0.192596 0.363152L0.192596 79.1777Z" stroke="#80B4FE" stroke-miterlimit="10"/>
<path d="M36.1625 79.1777C56.0281 79.1777 72.1324 61.5345 72.1324 39.7704C72.1324 18.0064 56.0281 0.363159 36.1625 0.363159C16.2969 0.363159 0.192627 18.0064 0.192627 39.7704C0.192627 61.5345 16.2969 79.1777 36.1625 79.1777Z" stroke="#80B4FE" stroke-miterlimit="10"/>
<path d="M72.1323 39.7704H0.165771" stroke="#80B4FE" stroke-miterlimit="10"/>
<path d="M36.1626 0.363159V79.1777" stroke="#80B4FE" stroke-miterlimit="10"/>
<path d="M-71.7471 79.1777L0.192627 79.1777L0.192627 0.363152L-71.7471 0.363152L-71.7471 79.1777Z" stroke="#80B4FE" stroke-miterlimit="10"/>
<path d="M-35.8041 79.1777C-15.9385 79.1777 0.165833 61.5345 0.165833 39.7704C0.165833 18.0064 -15.9385 0.363159 -35.8041 0.363159C-55.6697 0.363159 -71.7739 18.0064 -71.7739 39.7704C-71.7739 61.5345 -55.6697 79.1777 -35.8041 79.1777Z" stroke="#80B4FE" stroke-miterlimit="10"/>
<path d="M0.165831 39.7704H-71.7739" stroke="#80B4FE" stroke-miterlimit="10"/>
</g>
<path d="M34.4203 116.5H0.0854492V154.116H34.4203V116.5Z" fill="#F9AB00"/>
</svg>
