<svg width="116" height="116" viewBox="0 0 116 116" fill="none" xmlns="http://www.w3.org/2000/svg">
<mask id="mask0_138_5683" style="mask-type:luminance" maskUnits="userSpaceOnUse" x="0" y="0" width="116" height="116">
<path d="M58 116C90.0325 116 116 90.0325 116 58C116 25.9675 90.0325 0 58 0C25.9675 0 0 25.9675 0 58C0 90.0325 25.9675 116 58 116Z" fill="white"/>
</mask>
<g mask="url(#mask0_138_5683)">
<path d="M57.9985 115.998C90.031 115.998 115.999 90.0309 115.999 57.9984C115.999 25.9658 90.031 -0.00163269 57.9985 -0.00163269C25.966 -0.00163269 -0.00149536 25.9658 -0.00149536 57.9984C-0.00149536 90.0309 25.966 115.998 57.9985 115.998Z" fill="black"/>
<path d="M149.651 -5.01315H-33.6545V132.467H149.651V-5.01315Z" fill="#FFBA00"/>
<path d="M12.1729 -5.01315H-10.7399V17.8997H12.1729V-5.01315Z" stroke="#DDC68A" stroke-width="0.33" stroke-miterlimit="10"/>
<path d="M0.715753 17.9013C7.04341 17.9013 12.173 12.7717 12.173 6.44408C12.173 0.116426 7.04341 -5.01315 0.715753 -5.01315C-5.6119 -5.01315 -10.7415 0.116426 -10.7415 6.44408C-10.7415 12.7717 -5.6119 17.9013 0.715753 17.9013Z" stroke="#DDC68A" stroke-width="0.33" stroke-miterlimit="10"/>
<path d="M-10.7399 6.44408H12.1729" stroke="#DDC68A" stroke-width="0.33" stroke-miterlimit="10"/>
<path d="M0.715454 17.9013V-5.01315" stroke="#DDC68A" stroke-width="0.33" stroke-miterlimit="10"/>
<path d="M35.0856 -5.01315H12.1727V17.8997H35.0856V-5.01315Z" stroke="#DDC68A" stroke-width="0.33" stroke-miterlimit="10"/>
<path d="M23.63 17.9013C29.9576 17.9013 35.0872 12.7717 35.0872 6.44408C35.0872 0.116426 29.9576 -5.01315 23.63 -5.01315C17.3023 -5.01315 12.1727 0.116426 12.1727 6.44408C12.1727 12.7717 17.3023 17.9013 23.63 17.9013Z" stroke="#DDC68A" stroke-width="0.33" stroke-miterlimit="10"/>
<path d="M12.1727 6.44408H35.0856" stroke="#DDC68A" stroke-width="0.33" stroke-miterlimit="10"/>
<path d="M23.63 17.9013V-5.01315" stroke="#DDC68A" stroke-width="0.33" stroke-miterlimit="10"/>
<path d="M57.9985 -5.01315H35.0857V17.8997H57.9985V-5.01315Z" stroke="#DDC68A" stroke-width="0.33" stroke-miterlimit="10"/>
<path d="M46.5429 17.9013C52.8706 17.9013 58.0002 12.7717 58.0002 6.44408C58.0002 0.116426 52.8706 -5.01315 46.5429 -5.01315C40.2153 -5.01315 35.0857 0.116426 35.0857 6.44408C35.0857 12.7717 40.2153 17.9013 46.5429 17.9013Z" stroke="#DDC68A" stroke-width="0.33" stroke-miterlimit="10"/>
<path d="M35.0857 6.44408H57.9985" stroke="#DDC68A" stroke-width="0.33" stroke-miterlimit="10"/>
<path d="M46.543 17.9013V-5.01315" stroke="#DDC68A" stroke-width="0.33" stroke-miterlimit="10"/>
<path d="M80.9112 -5.01315H57.9984V17.8997H80.9112V-5.01315Z" stroke="#DDC68A" stroke-width="0.33" stroke-miterlimit="10"/>
<path d="M69.4556 17.9013C75.7832 17.9013 80.9128 12.7717 80.9128 6.44408C80.9128 0.116426 75.7832 -5.01315 69.4556 -5.01315C63.1279 -5.01315 57.9984 0.116426 57.9984 6.44408C57.9984 12.7717 63.1279 17.9013 69.4556 17.9013Z" stroke="#DDC68A" stroke-width="0.33" stroke-miterlimit="10"/>
<path d="M57.9984 6.44408H80.9128" stroke="#DDC68A" stroke-width="0.33" stroke-miterlimit="10"/>
<path d="M69.4556 17.9013V-5.01315" stroke="#DDC68A" stroke-width="0.33" stroke-miterlimit="10"/>
<path d="M103.826 -5.01315H80.9129V17.8997H103.826V-5.01315Z" stroke="#DDC68A" stroke-width="0.33" stroke-miterlimit="10"/>
<path d="M92.3686 17.9013C98.6963 17.9013 103.826 12.7717 103.826 6.44408C103.826 0.116426 98.6963 -5.01315 92.3686 -5.01315C86.041 -5.01315 80.9114 0.116426 80.9114 6.44408C80.9114 12.7717 86.041 17.9013 92.3686 17.9013Z" stroke="#DDC68A" stroke-width="0.33" stroke-miterlimit="10"/>
<path d="M80.9129 6.44408H103.826" stroke="#DDC68A" stroke-width="0.33" stroke-miterlimit="10"/>
<path d="M92.3687 17.9013V-5.01315" stroke="#DDC68A" stroke-width="0.33" stroke-miterlimit="10"/>
<path d="M126.739 -5.01315H103.826V17.8997H126.739V-5.01315Z" stroke="#DDC68A" stroke-width="0.33" stroke-miterlimit="10"/>
<path d="M115.283 17.9013C121.611 17.9013 126.74 12.7717 126.74 6.44408C126.74 0.116426 121.611 -5.01315 115.283 -5.01315C108.955 -5.01315 103.826 0.116426 103.826 6.44408C103.826 12.7717 108.955 17.9013 115.283 17.9013Z" stroke="#DDC68A" stroke-width="0.33" stroke-miterlimit="10"/>
<path d="M103.826 6.44408H126.739" stroke="#DDC68A" stroke-width="0.33" stroke-miterlimit="10"/>
<path d="M115.283 17.9013V-5.01315" stroke="#DDC68A" stroke-width="0.33" stroke-miterlimit="10"/>
<path d="M12.1729 17.9013H-10.7399V40.8141H12.1729V17.9013Z" stroke="#DDC68A" stroke-width="0.33" stroke-miterlimit="10"/>
<path d="M0.715753 40.8141C7.04341 40.8141 12.173 35.6846 12.173 29.3569C12.173 23.0292 7.04341 17.8997 0.715753 17.8997C-5.6119 17.8997 -10.7415 23.0292 -10.7415 29.3569C-10.7415 35.6846 -5.6119 40.8141 0.715753 40.8141Z" stroke="#DDC68A" stroke-width="0.33" stroke-miterlimit="10"/>
<path d="M-10.7399 29.3569H12.1729" stroke="#DDC68A" stroke-width="0.33" stroke-miterlimit="10"/>
<path d="M0.715454 40.8141V17.9013" stroke="#DDC68A" stroke-width="0.33" stroke-miterlimit="10"/>
<path d="M35.0856 17.9013H12.1727V40.8141H35.0856V17.9013Z" stroke="#DDC68A" stroke-width="0.33" stroke-miterlimit="10"/>
<path d="M23.63 40.8141C29.9576 40.8141 35.0872 35.6846 35.0872 29.3569C35.0872 23.0292 29.9576 17.8997 23.63 17.8997C17.3023 17.8997 12.1727 23.0292 12.1727 29.3569C12.1727 35.6846 17.3023 40.8141 23.63 40.8141Z" stroke="#DDC68A" stroke-width="0.33" stroke-miterlimit="10"/>
<path d="M12.1727 29.3569H35.0856" stroke="#DDC68A" stroke-width="0.33" stroke-miterlimit="10"/>
<path d="M23.63 40.8141V17.9013" stroke="#DDC68A" stroke-width="0.33" stroke-miterlimit="10"/>
<path d="M57.9985 17.9013H35.0857V40.8141H57.9985V17.9013Z" stroke="#DDC68A" stroke-width="0.33" stroke-miterlimit="10"/>
<path d="M46.5429 40.8141C52.8706 40.8141 58.0002 35.6846 58.0002 29.3569C58.0002 23.0292 52.8706 17.8997 46.5429 17.8997C40.2153 17.8997 35.0857 23.0292 35.0857 29.3569C35.0857 35.6846 40.2153 40.8141 46.5429 40.8141Z" stroke="#DDC68A" stroke-width="0.33" stroke-miterlimit="10"/>
<path d="M35.0857 29.3569H57.9985" stroke="#DDC68A" stroke-width="0.33" stroke-miterlimit="10"/>
<path d="M46.543 40.8141V17.9013" stroke="#DDC68A" stroke-width="0.33" stroke-miterlimit="10"/>
<path d="M80.9112 17.9013H57.9984V40.8141H80.9112V17.9013Z" stroke="#DDC68A" stroke-width="0.33" stroke-miterlimit="10"/>
<path d="M69.4556 40.8141C75.7832 40.8141 80.9128 35.6846 80.9128 29.3569C80.9128 23.0292 75.7832 17.8997 69.4556 17.8997C63.1279 17.8997 57.9984 23.0292 57.9984 29.3569C57.9984 35.6846 63.1279 40.8141 69.4556 40.8141Z" stroke="#DDC68A" stroke-width="0.33" stroke-miterlimit="10"/>
<path d="M57.9984 29.3569H80.9128" stroke="#DDC68A" stroke-width="0.33" stroke-miterlimit="10"/>
<path d="M69.4556 17.9013V40.8141" stroke="#DDC68A" stroke-width="0.33" stroke-miterlimit="10"/>
<path d="M103.826 17.9013H80.9129V40.8141H103.826V17.9013Z" stroke="#DDC68A" stroke-width="0.33" stroke-miterlimit="10"/>
<path d="M92.3686 40.8141C98.6963 40.8141 103.826 35.6846 103.826 29.3569C103.826 23.0292 98.6963 17.8997 92.3686 17.8997C86.041 17.8997 80.9114 23.0292 80.9114 29.3569C80.9114 35.6846 86.041 40.8141 92.3686 40.8141Z" stroke="#DDC68A" stroke-width="0.33" stroke-miterlimit="10"/>
<path d="M80.9129 29.3569H103.826" stroke="#DDC68A" stroke-width="0.33" stroke-miterlimit="10"/>
<path d="M92.3687 40.8141V17.9013" stroke="#DDC68A" stroke-width="0.33" stroke-miterlimit="10"/>
<path d="M126.739 17.9013H103.826V40.8141H126.739V17.9013Z" stroke="#DDC68A" stroke-width="0.33" stroke-miterlimit="10"/>
<path d="M115.283 40.8141C121.611 40.8141 126.74 35.6846 126.74 29.3569C126.74 23.0292 121.611 17.8997 115.283 17.8997C108.955 17.8997 103.826 23.0292 103.826 29.3569C103.826 35.6846 108.955 40.8141 115.283 40.8141Z" stroke="#DDC68A" stroke-width="0.33" stroke-miterlimit="10"/>
<path d="M103.826 29.3569H126.739" stroke="#DDC68A" stroke-width="0.33" stroke-miterlimit="10"/>
<path d="M115.283 40.8141V17.9013" stroke="#DDC68A" stroke-width="0.33" stroke-miterlimit="10"/>
<path d="M12.1729 40.8141H-10.7399V63.7269H12.1729V40.8141Z" stroke="#DDC68A" stroke-width="0.33" stroke-miterlimit="10"/>
<path d="M0.715753 63.7286C7.04341 63.7286 12.173 58.599 12.173 52.2714C12.173 45.9437 7.04341 40.8141 0.715753 40.8141C-5.6119 40.8141 -10.7415 45.9437 -10.7415 52.2714C-10.7415 58.599 -5.6119 63.7286 0.715753 63.7286Z" stroke="#DDC68A" stroke-width="0.33" stroke-miterlimit="10"/>
<path d="M-10.7399 52.2714H12.1729" stroke="#DDC68A" stroke-width="0.33" stroke-miterlimit="10"/>
<path d="M0.715454 63.727V40.8141" stroke="#DDC68A" stroke-width="0.33" stroke-miterlimit="10"/>
<path d="M35.0856 40.8141H12.1727V63.7269H35.0856V40.8141Z" stroke="#DDC68A" stroke-width="0.33" stroke-miterlimit="10"/>
<path d="M23.63 63.7286C29.9576 63.7286 35.0872 58.599 35.0872 52.2714C35.0872 45.9437 29.9576 40.8141 23.63 40.8141C17.3023 40.8141 12.1727 45.9437 12.1727 52.2714C12.1727 58.599 17.3023 63.7286 23.63 63.7286Z" stroke="#DDC68A" stroke-width="0.33" stroke-miterlimit="10"/>
<path d="M12.1727 52.2714H35.0856" stroke="#DDC68A" stroke-width="0.33" stroke-miterlimit="10"/>
<path d="M23.63 63.727V40.8141" stroke="#DDC68A" stroke-width="0.33" stroke-miterlimit="10"/>
<path d="M57.9985 40.8141H35.0857V63.7269H57.9985V40.8141Z" stroke="#DDC68A" stroke-width="0.33" stroke-miterlimit="10"/>
<path d="M46.5429 63.7286C52.8706 63.7286 58.0002 58.599 58.0002 52.2714C58.0002 45.9437 52.8706 40.8141 46.5429 40.8141C40.2153 40.8141 35.0857 45.9437 35.0857 52.2714C35.0857 58.599 40.2153 63.7286 46.5429 63.7286Z" stroke="#DDC68A" stroke-width="0.33" stroke-miterlimit="10"/>
<path d="M35.0857 52.2714H57.9985" stroke="#DDC68A" stroke-width="0.33" stroke-miterlimit="10"/>
<path d="M46.543 63.727V40.8141" stroke="#DDC68A" stroke-width="0.33" stroke-miterlimit="10"/>
<path d="M80.9112 40.8141H57.9984V63.7269H80.9112V40.8141Z" stroke="#DDC68A" stroke-width="0.33" stroke-miterlimit="10"/>
<path d="M69.4556 63.7286C75.7832 63.7286 80.9128 58.599 80.9128 52.2714C80.9128 45.9437 75.7832 40.8141 69.4556 40.8141C63.1279 40.8141 57.9984 45.9437 57.9984 52.2714C57.9984 58.599 63.1279 63.7286 69.4556 63.7286Z" stroke="#DDC68A" stroke-width="0.33" stroke-miterlimit="10"/>
<path d="M57.9984 52.2714H80.9128" stroke="#DDC68A" stroke-width="0.33" stroke-miterlimit="10"/>
<path d="M69.4556 63.727V40.8141" stroke="#DDC68A" stroke-width="0.33" stroke-miterlimit="10"/>
<path d="M103.826 40.8141H80.9129V63.7269H103.826V40.8141Z" stroke="#DDC68A" stroke-width="0.33" stroke-miterlimit="10"/>
<path d="M92.3686 63.7286C98.6963 63.7286 103.826 58.599 103.826 52.2714C103.826 45.9437 98.6963 40.8141 92.3686 40.8141C86.041 40.8141 80.9114 45.9437 80.9114 52.2714C80.9114 58.599 86.041 63.7286 92.3686 63.7286Z" stroke="#DDC68A" stroke-width="0.33" stroke-miterlimit="10"/>
<path d="M80.9129 52.2714H103.826" stroke="#DDC68A" stroke-width="0.33" stroke-miterlimit="10"/>
<path d="M92.3687 63.727V40.8141" stroke="#DDC68A" stroke-width="0.33" stroke-miterlimit="10"/>
<path d="M126.739 40.8141H103.826V63.7269H126.739V40.8141Z" stroke="#DDC68A" stroke-width="0.33" stroke-miterlimit="10"/>
<path d="M115.283 63.7286C121.611 63.7286 126.74 58.599 126.74 52.2714C126.74 45.9437 121.611 40.8141 115.283 40.8141C108.955 40.8141 103.826 45.9437 103.826 52.2714C103.826 58.599 108.955 63.7286 115.283 63.7286Z" stroke="#DDC68A" stroke-width="0.33" stroke-miterlimit="10"/>
<path d="M103.826 52.2714H126.739" stroke="#DDC68A" stroke-width="0.33" stroke-miterlimit="10"/>
<path d="M115.283 63.727V40.8141" stroke="#DDC68A" stroke-width="0.33" stroke-miterlimit="10"/>
<path d="M12.1729 63.727H-10.7399V86.6398H12.1729V63.727Z" stroke="#DDC68A" stroke-width="0.33" stroke-miterlimit="10"/>
<path d="M0.715753 86.6415C7.04341 86.6415 12.173 81.5119 12.173 75.1842C12.173 68.8566 7.04341 63.727 0.715753 63.727C-5.6119 63.727 -10.7415 68.8566 -10.7415 75.1842C-10.7415 81.5119 -5.6119 86.6415 0.715753 86.6415Z" stroke="#DDC68A" stroke-width="0.33" stroke-miterlimit="10"/>
<path d="M-10.7399 75.1842H12.1729" stroke="#DDC68A" stroke-width="0.33" stroke-miterlimit="10"/>
<path d="M0.715454 86.6398V63.727" stroke="#DDC68A" stroke-width="0.33" stroke-miterlimit="10"/>
<path d="M35.0856 63.727H12.1727V86.6398H35.0856V63.727Z" stroke="#DDC68A" stroke-width="0.33" stroke-miterlimit="10"/>
<path d="M23.63 86.6415C29.9576 86.6415 35.0872 81.5119 35.0872 75.1842C35.0872 68.8566 29.9576 63.727 23.63 63.727C17.3023 63.727 12.1727 68.8566 12.1727 75.1842C12.1727 81.5119 17.3023 86.6415 23.63 86.6415Z" stroke="#DDC68A" stroke-width="0.33" stroke-miterlimit="10"/>
<path d="M12.1727 75.1842H35.0856" stroke="#DDC68A" stroke-width="0.33" stroke-miterlimit="10"/>
<path d="M23.63 86.6398V63.727" stroke="#DDC68A" stroke-width="0.33" stroke-miterlimit="10"/>
<path d="M57.9985 63.727H35.0857V86.6398H57.9985V63.727Z" stroke="#DDC68A" stroke-width="0.33" stroke-miterlimit="10"/>
<path d="M46.5429 86.6415C52.8706 86.6415 58.0002 81.5119 58.0002 75.1842C58.0002 68.8566 52.8706 63.727 46.5429 63.727C40.2153 63.727 35.0857 68.8566 35.0857 75.1842C35.0857 81.5119 40.2153 86.6415 46.5429 86.6415Z" stroke="#DDC68A" stroke-width="0.33" stroke-miterlimit="10"/>
<path d="M35.0857 75.1842H57.9985" stroke="#DDC68A" stroke-width="0.33" stroke-miterlimit="10"/>
<path d="M46.543 86.6398V63.727" stroke="#DDC68A" stroke-width="0.33" stroke-miterlimit="10"/>
<path d="M80.9112 63.727H57.9984V86.6398H80.9112V63.727Z" stroke="#DDC68A" stroke-width="0.33" stroke-miterlimit="10"/>
<path d="M69.4556 86.6415C75.7832 86.6415 80.9128 81.5119 80.9128 75.1842C80.9128 68.8566 75.7832 63.727 69.4556 63.727C63.1279 63.727 57.9984 68.8566 57.9984 75.1842C57.9984 81.5119 63.1279 86.6415 69.4556 86.6415Z" stroke="#DDC68A" stroke-width="0.33" stroke-miterlimit="10"/>
<path d="M57.9984 75.1842H80.9128" stroke="#DDC68A" stroke-width="0.33" stroke-miterlimit="10"/>
<path d="M69.4556 86.6398V63.727" stroke="#DDC68A" stroke-width="0.33" stroke-miterlimit="10"/>
<path d="M103.826 63.727H80.9129V86.6398H103.826V63.727Z" stroke="#DDC68A" stroke-width="0.33" stroke-miterlimit="10"/>
<path d="M92.3686 86.6415C98.6963 86.6415 103.826 81.5119 103.826 75.1842C103.826 68.8566 98.6963 63.727 92.3686 63.727C86.041 63.727 80.9114 68.8566 80.9114 75.1842C80.9114 81.5119 86.041 86.6415 92.3686 86.6415Z" stroke="#DDC68A" stroke-width="0.33" stroke-miterlimit="10"/>
<path d="M80.9129 75.1842H103.826" stroke="#DDC68A" stroke-width="0.33" stroke-miterlimit="10"/>
<path d="M92.3687 86.6398V63.727" stroke="#DDC68A" stroke-width="0.33" stroke-miterlimit="10"/>
<path d="M126.739 63.727H103.826V86.6398H126.739V63.727Z" stroke="#DDC68A" stroke-width="0.33" stroke-miterlimit="10"/>
<path d="M115.283 86.6415C121.611 86.6415 126.74 81.5119 126.74 75.1842C126.74 68.8566 121.611 63.727 115.283 63.727C108.955 63.727 103.826 68.8566 103.826 75.1842C103.826 81.5119 108.955 86.6415 115.283 86.6415Z" stroke="#DDC68A" stroke-width="0.33" stroke-miterlimit="10"/>
<path d="M103.826 75.1842H126.739" stroke="#DDC68A" stroke-width="0.33" stroke-miterlimit="10"/>
<path d="M115.283 86.6398V63.727" stroke="#DDC68A" stroke-width="0.33" stroke-miterlimit="10"/>
<path d="M126.739 86.6398H103.826V98.0971H126.739V86.6398Z" stroke="#DDC68A" stroke-width="0.33" stroke-miterlimit="10"/>
<path d="M103.826 98.097C103.862 95.0824 105.085 92.2034 107.229 90.0843C109.374 87.9653 112.267 86.7769 115.282 86.7769C118.297 86.7769 121.191 87.9653 123.335 90.0843C125.48 92.2034 126.703 95.0824 126.739 98.097" stroke="#DDC68A" stroke-width="0.33" stroke-miterlimit="10"/>
<path d="M103.826 98.097H126.739" stroke="#DDC68A" stroke-width="0.33" stroke-miterlimit="10"/>
<path d="M115.283 98.0971V86.6398" stroke="#DDC68A" stroke-width="0.33" stroke-miterlimit="10"/>
<path d="M103.826 86.6398H80.9129V98.0971H103.826V86.6398Z" stroke="#DDC68A" stroke-width="0.33" stroke-miterlimit="10"/>
<path d="M80.9129 98.097C80.949 95.0824 82.1719 92.2034 84.3165 90.0843C86.4611 87.9653 89.3545 86.7769 92.3694 86.7769C95.3843 86.7769 98.2776 87.9653 100.422 90.0843C102.567 92.2034 103.79 95.0824 103.826 98.097" stroke="#DDC68A" stroke-width="0.33" stroke-miterlimit="10"/>
<path d="M80.9129 98.097H103.826" stroke="#DDC68A" stroke-width="0.33" stroke-miterlimit="10"/>
<path d="M92.3687 98.0971V86.6398" stroke="#DDC68A" stroke-width="0.33" stroke-miterlimit="10"/>
<path d="M80.9112 86.6398H57.9984V98.0971H80.9112V86.6398Z" stroke="#DDC68A" stroke-width="0.33" stroke-miterlimit="10"/>
<path d="M58 98.097C58.0361 95.0824 59.2589 92.2034 61.4035 90.0843C63.5481 87.9653 66.4415 86.7769 69.4564 86.7769C72.4713 86.7769 75.3647 87.9653 77.5093 90.0843C79.6538 92.2034 80.8767 95.0824 80.9128 98.097" stroke="#DDC68A" stroke-width="0.33" stroke-miterlimit="10"/>
<path d="M57.9984 98.097H80.9128" stroke="#DDC68A" stroke-width="0.33" stroke-miterlimit="10"/>
<path d="M69.4556 98.0971V86.6398" stroke="#DDC68A" stroke-width="0.33" stroke-miterlimit="10"/>
<path d="M57.9985 86.6398H35.0857V98.0971H57.9985V86.6398Z" stroke="#DDC68A" stroke-width="0.33" stroke-miterlimit="10"/>
<path d="M35.0857 98.0971C35.0857 95.0584 36.2928 92.1442 38.4414 89.9956C40.5901 87.8469 43.5043 86.6398 46.5429 86.6398C49.5816 86.6398 52.4958 87.8469 54.6444 89.9956C56.7931 92.1442 58.0002 95.0584 58.0002 98.0971" stroke="#DDC68A" stroke-width="0.33" stroke-miterlimit="10"/>
<path d="M35.0857 98.097H57.9985" stroke="#DDC68A" stroke-width="0.33" stroke-miterlimit="10"/>
<path d="M46.543 98.0971V86.6398" stroke="#DDC68A" stroke-width="0.33" stroke-miterlimit="10"/>
<path d="M35.0856 86.6398H12.1727V98.0971H35.0856V86.6398Z" stroke="#DDC68A" stroke-width="0.33" stroke-miterlimit="10"/>
<path d="M12.1727 98.097C12.2088 95.0824 13.4317 92.2034 15.5763 90.0843C17.7209 87.9653 20.6142 86.7769 23.6291 86.7769C26.644 86.7769 29.5374 87.9653 31.682 90.0843C33.8266 92.2034 35.0495 95.0824 35.0856 98.097" stroke="#DDC68A" stroke-width="0.33" stroke-miterlimit="10"/>
<path d="M12.1727 98.097H35.0856" stroke="#DDC68A" stroke-width="0.33" stroke-miterlimit="10"/>
<path d="M23.63 98.0971V86.6398" stroke="#DDC68A" stroke-width="0.33" stroke-miterlimit="10"/>
<path d="M12.1729 86.6398H-10.7399V98.0971H12.1729V86.6398Z" stroke="#DDC68A" stroke-width="0.33" stroke-miterlimit="10"/>
<path d="M-10.7399 98.097C-10.7038 95.0824 -9.48095 92.2034 -7.33638 90.0843C-5.19181 87.9653 -2.29841 86.7769 0.716486 86.7769C3.73138 86.7769 6.62478 87.9653 8.76935 90.0843C10.9139 92.2034 12.1368 95.0824 12.1729 98.097" stroke="#DDC68A" stroke-width="0.33" stroke-miterlimit="10"/>
<path d="M-10.7399 98.097H12.1729" stroke="#DDC68A" stroke-width="0.33" stroke-miterlimit="10"/>
<path d="M0.715454 98.0971V86.6398" stroke="#DDC68A" stroke-width="0.33" stroke-miterlimit="10"/>
<path d="M103.826 132.467H126.739V109.554H103.826V132.467Z" stroke="#DDC68A" stroke-width="0.33" stroke-miterlimit="10"/>
<path d="M115.283 132.467C121.611 132.467 126.74 127.338 126.74 121.01C126.74 114.682 121.611 109.553 115.283 109.553C108.955 109.553 103.826 114.682 103.826 121.01C103.826 127.338 108.955 132.467 115.283 132.467Z" stroke="#DDC68A" stroke-width="0.33" stroke-miterlimit="10"/>
<path d="M115.283 109.554V132.467" stroke="#DDC68A" stroke-width="0.33" stroke-miterlimit="10"/>
<path d="M80.913 132.467H103.826V109.554H80.913V132.467Z" stroke="#DDC68A" stroke-width="0.33" stroke-miterlimit="10"/>
<path d="M92.3686 132.467C98.6963 132.467 103.826 127.338 103.826 121.01C103.826 114.682 98.6963 109.553 92.3686 109.553C86.041 109.553 80.9114 114.682 80.9114 121.01C80.9114 127.338 86.041 132.467 92.3686 132.467Z" stroke="#DDC68A" stroke-width="0.33" stroke-miterlimit="10"/>
<path d="M92.3687 109.554V132.467" stroke="#DDC68A" stroke-width="0.33" stroke-miterlimit="10"/>
<path d="M57.9985 132.467H80.9114V109.554H57.9985V132.467Z" stroke="#DDC68A" stroke-width="0.33" stroke-miterlimit="10"/>
<path d="M69.4556 132.467C75.7832 132.467 80.9128 127.338 80.9128 121.01C80.9128 114.682 75.7832 109.553 69.4556 109.553C63.1279 109.553 57.9984 114.682 57.9984 121.01C57.9984 127.338 63.1279 132.467 69.4556 132.467Z" stroke="#DDC68A" stroke-width="0.33" stroke-miterlimit="10"/>
<path d="M69.4556 109.554V132.467" stroke="#DDC68A" stroke-width="0.33" stroke-miterlimit="10"/>
<path d="M35.0871 132.467H58V109.554H35.0871V132.467Z" stroke="#DDC68A" stroke-width="0.33" stroke-miterlimit="10"/>
<path d="M46.5429 132.467C52.8706 132.467 58.0002 127.338 58.0002 121.01C58.0002 114.682 52.8706 109.553 46.5429 109.553C40.2153 109.553 35.0857 114.682 35.0857 121.01C35.0857 127.338 40.2153 132.467 46.5429 132.467Z" stroke="#DDC68A" stroke-width="0.33" stroke-miterlimit="10"/>
<path d="M46.543 109.554V132.467" stroke="#DDC68A" stroke-width="0.33" stroke-miterlimit="10"/>
<path d="M12.1729 132.467H35.0857V109.554H12.1729L12.1729 132.467Z" stroke="#DDC68A" stroke-width="0.33" stroke-miterlimit="10"/>
<path d="M23.63 132.467C29.9576 132.467 35.0872 127.338 35.0872 121.01C35.0872 114.682 29.9576 109.553 23.63 109.553C17.3023 109.553 12.1727 114.682 12.1727 121.01C12.1727 127.338 17.3023 132.467 23.63 132.467Z" stroke="#DDC68A" stroke-width="0.33" stroke-miterlimit="10"/>
<path d="M23.63 109.554V132.467" stroke="#DDC68A" stroke-width="0.33" stroke-miterlimit="10"/>
<path d="M-10.7401 132.467H12.1727L12.1727 109.554H-10.7401L-10.7401 132.467Z" stroke="#DDC68A" stroke-width="0.33" stroke-miterlimit="10"/>
<path d="M0.715753 132.467C7.04341 132.467 12.173 127.338 12.173 121.01C12.173 114.682 7.04341 109.553 0.715753 109.553C-5.6119 109.553 -10.7415 114.682 -10.7415 121.01C-10.7415 127.338 -5.6119 132.467 0.715753 132.467Z" stroke="#DDC68A" stroke-width="0.33" stroke-miterlimit="10"/>
<path d="M0.715454 109.554V132.467" stroke="#DDC68A" stroke-width="0.33" stroke-miterlimit="10"/>
<path d="M-10.7401 109.554H12.1727L12.1727 98.0971H-10.7401V109.554Z" stroke="#DDC68A" stroke-width="0.33" stroke-miterlimit="10"/>
<path d="M12.1728 98.097C12.191 99.6131 11.908 101.118 11.3404 102.523C10.7728 103.929 9.93184 105.209 8.86621 106.287C7.80059 107.365 6.53151 108.222 5.13254 108.806C3.73356 109.39 2.23252 109.691 0.716392 109.691C-0.799732 109.691 -2.30078 109.39 -3.69975 108.806C-5.09873 108.222 -6.3678 107.365 -7.43343 106.287C-8.49906 105.209 -9.34004 103.929 -9.90764 102.523C-10.4752 101.118 -10.7582 99.6131 -10.74 98.097" stroke="#DDC68A" stroke-width="0.33" stroke-miterlimit="10"/>
<path d="M12.1729 98.097H-10.7399" stroke="#DDC68A" stroke-width="0.33" stroke-miterlimit="10"/>
<path d="M0.715454 98.097V109.554" stroke="#DDC68A" stroke-width="0.33" stroke-miterlimit="10"/>
<path d="M12.1729 109.554H35.0857V98.0971H12.1729V109.554Z" stroke="#DDC68A" stroke-width="0.33" stroke-miterlimit="10"/>
<path d="M35.0858 98.097C35.1039 99.6131 34.821 101.118 34.2534 102.523C33.6858 103.929 32.8448 105.209 31.7792 106.287C30.7135 107.365 29.4445 108.222 28.0455 108.806C26.6465 109.39 25.1455 109.691 23.6294 109.691C22.1132 109.691 20.6122 109.39 19.2132 108.806C17.8142 108.222 16.5452 107.365 15.4795 106.287C14.4139 105.209 13.5729 103.929 13.0053 102.523C12.4377 101.118 12.1548 99.6131 12.1729 98.097" stroke="#DDC68A" stroke-width="0.33" stroke-miterlimit="10"/>
<path d="M35.0856 98.097H12.1727" stroke="#DDC68A" stroke-width="0.33" stroke-miterlimit="10"/>
<path d="M23.63 98.097V109.554" stroke="#DDC68A" stroke-width="0.33" stroke-miterlimit="10"/>
<path d="M35.0871 109.554H58V98.0971H35.0871V109.554Z" stroke="#DDC68A" stroke-width="0.33" stroke-miterlimit="10"/>
<path d="M58.0002 98.097C58.0002 99.6016 57.7038 101.091 57.128 102.482C56.5523 103.872 55.7083 105.135 54.6444 106.199C53.5805 107.262 52.3175 108.106 50.9274 108.682C49.5374 109.258 48.0475 109.554 46.5429 109.554C45.0383 109.554 43.5485 109.258 42.1584 108.682C40.7684 108.106 39.5053 107.262 38.4414 106.199C37.3775 105.135 36.5336 103.872 35.9578 102.482C35.382 101.091 35.0857 99.6016 35.0857 98.097" stroke="#DDC68A" stroke-width="0.33" stroke-miterlimit="10"/>
<path d="M57.9985 98.097H35.0857" stroke="#DDC68A" stroke-width="0.33" stroke-miterlimit="10"/>
<path d="M46.543 98.097V109.554" stroke="#DDC68A" stroke-width="0.33" stroke-miterlimit="10"/>
<path d="M57.9985 109.554H80.9114V98.0971H57.9985V109.554Z" stroke="#DDC68A" stroke-width="0.33" stroke-miterlimit="10"/>
<path d="M80.913 98.097C80.9311 99.6131 80.6482 101.118 80.0806 102.523C79.513 103.929 78.672 105.209 77.6064 106.287C76.5408 107.365 75.2717 108.222 73.8727 108.806C72.4737 109.39 70.9727 109.691 69.4566 109.691C67.9404 109.691 66.4394 109.39 65.0404 108.806C63.6414 108.222 62.3724 107.365 61.3067 106.287C60.2411 105.209 59.4001 103.929 58.8325 102.523C58.2649 101.118 57.982 99.6131 58.0001 98.097" stroke="#DDC68A" stroke-width="0.33" stroke-miterlimit="10"/>
<path d="M80.9128 98.097H57.9984" stroke="#DDC68A" stroke-width="0.33" stroke-miterlimit="10"/>
<path d="M69.4556 98.097V109.554" stroke="#DDC68A" stroke-width="0.33" stroke-miterlimit="10"/>
<path d="M80.913 109.554H103.826V98.0971H80.913V109.554Z" stroke="#DDC68A" stroke-width="0.33" stroke-miterlimit="10"/>
<path d="M103.826 98.097C103.844 99.6131 103.561 101.118 102.993 102.523C102.426 103.929 101.585 105.209 100.519 106.287C99.4534 107.365 98.1843 108.222 96.7853 108.806C95.3864 109.39 93.8853 109.691 92.3692 109.691C90.8531 109.691 89.352 109.39 87.953 108.806C86.5541 108.222 85.285 107.365 84.2194 106.287C83.1537 105.209 82.3128 103.929 81.7452 102.523C81.1776 101.118 80.8946 99.6131 80.9128 98.097" stroke="#DDC68A" stroke-width="0.33" stroke-miterlimit="10"/>
<path d="M103.826 98.097H80.9129" stroke="#DDC68A" stroke-width="0.33" stroke-miterlimit="10"/>
<path d="M92.3687 98.097V109.554" stroke="#DDC68A" stroke-width="0.33" stroke-miterlimit="10"/>
<path d="M103.826 109.554H126.739V98.0971H103.826V109.554Z" stroke="#DDC68A" stroke-width="0.33" stroke-miterlimit="10"/>
<path d="M126.739 98.097C126.757 99.6131 126.474 101.118 125.906 102.523C125.339 103.929 124.498 105.209 123.432 106.287C122.366 107.365 121.097 108.222 119.698 108.806C118.299 109.39 116.798 109.691 115.282 109.691C113.766 109.691 112.265 109.39 110.866 108.806C109.467 108.222 108.198 107.365 107.132 106.287C106.067 105.209 105.226 103.929 104.658 102.523C104.091 101.118 103.808 99.6131 103.826 98.097" stroke="#DDC68A" stroke-width="0.33" stroke-miterlimit="10"/>
<path d="M126.739 98.097H103.826" stroke="#DDC68A" stroke-width="0.33" stroke-miterlimit="10"/>
<path d="M115.283 98.097V109.554" stroke="#DDC68A" stroke-width="0.33" stroke-miterlimit="10"/>
<path d="M35.0857 35.0855H29.3571V40.8142H35.0857V35.0855Z" fill="white"/>
<path d="M63.7188 92.3766H57.9984V98.0971H63.7188V92.3766Z" fill="black"/>
<path d="M80.913 40.8141H40.8143V35.0855H35.0857V-2.9718H80.913V40.8141Z" fill="white"/>
<path d="M0.000183105 53.035H103.783V64.4906H115.956V87.4051H46.515V98.8607H0.000183105V53.035Z" fill="black"/>
<path d="M58.0002 98.097H46.5578V117.4H58.0002V98.097Z" fill="black"/>
<path d="M50.5288 23.0458L55.1597 20.371C55.4239 20.224 55.6562 20.026 55.8432 19.7884C56.0301 19.5508 56.1679 19.2783 56.2486 18.987C56.3292 18.6956 56.3511 18.3911 56.3129 18.0912C56.2747 17.7912 56.1772 17.5019 56.0262 17.24C55.8751 16.9782 55.6734 16.7489 55.4329 16.5658C55.1924 16.3826 54.9178 16.2491 54.6252 16.173C54.3326 16.0969 54.0278 16.0799 53.7285 16.1228C53.4292 16.1656 53.1415 16.2676 52.882 16.4228L44.8773 21.0438L50.5288 23.0458Z" fill="#ED352F"/>
<path d="M54.0193 29.9181C54.5211 29.9183 55.009 29.7529 55.4073 29.4475C55.8056 29.1422 56.0919 28.7139 56.2219 28.2291C56.3518 27.7444 56.3182 27.2303 56.1262 26.7666C55.9341 26.3029 55.5944 25.9156 55.1597 25.6647L47.1567 21.0438C46.6332 20.7415 46.011 20.6596 45.427 20.8161C44.8431 20.9726 44.3452 21.3546 44.043 21.8782C43.7407 22.4017 43.6588 23.0239 43.8153 23.6079C43.9718 24.1918 44.3539 24.6897 44.8774 24.9919L52.8821 29.6129C53.2276 29.813 53.6199 29.9183 54.0193 29.9181Z" fill="#4B7ABD"/>
<path d="M61.9793 29.9181C62.3791 29.9181 62.7719 29.8128 63.1182 29.6129L71.1212 24.9919L65.5419 22.9489L60.8389 25.6647C60.4042 25.9156 60.0645 26.3029 59.8724 26.7666C59.6804 27.2303 59.6467 27.7444 59.7767 28.2291C59.9067 28.7139 60.193 29.1422 60.5913 29.4476C60.9895 29.753 61.4775 29.9184 61.9793 29.9181Z" fill="#FCB912"/>
<path d="M69.9791 25.2972C70.4816 25.2992 70.9708 25.1351 71.3705 24.8304C71.7701 24.5256 72.0578 24.0973 72.1889 23.6121C72.3199 23.1269 72.2869 22.612 72.095 22.1475C71.9031 21.683 71.563 21.295 71.1277 21.0438L63.1247 16.4228C62.8655 16.2732 62.5793 16.176 62.2825 16.137C61.9858 16.0979 61.6842 16.1177 61.3951 16.1952C61.1059 16.2726 60.8349 16.4063 60.5974 16.5885C60.3599 16.7708 60.1607 16.998 60.011 17.2572C59.8613 17.5165 59.7642 17.8027 59.7251 18.0994C59.6861 18.3962 59.7059 18.6978 59.7833 18.9869C59.8608 19.2761 59.9945 19.5471 60.1767 19.7846C60.359 20.0221 60.5862 20.2213 60.8454 20.371L68.8484 24.9919C69.1922 25.1906 69.582 25.2958 69.9791 25.2972Z" fill="#00AC4E"/>
<path d="M29.3341 73.9535L27.2403 75.0923L26.5609 73.6154C26.1945 74.0794 25.727 74.4536 25.1941 74.7096C24.6612 74.9655 24.0769 75.0964 23.4857 75.0923C20.9291 75.0923 19.5917 72.9755 19.5917 69.7001C19.5917 66.1458 21.1687 64.2275 23.6859 64.2275C24.8641 64.2275 25.7831 64.6673 26.382 65.4861V60.2531H28.5383V72.3552L29.3341 73.9535ZM26.3804 72.516V66.9515C25.8203 66.4815 25.1144 66.2205 24.3833 66.213C22.785 66.213 21.8464 67.4306 21.8464 69.728C21.8464 71.9253 22.726 73.1429 24.3423 73.1429C25.0668 73.1312 25.7731 72.9138 26.3787 72.516H26.3804Z" fill="white"/>
<path d="M40.0396 69.9052H32.9687C33.1081 71.7234 34.5259 72.941 36.7626 72.941C37.8998 72.941 39.1387 72.7014 39.9772 72.2616L39.2979 74.4786C38.5988 74.8593 37.4206 75.0989 36.0635 75.0989C32.8489 75.0989 30.732 72.9213 30.732 69.6066C30.732 66.2918 32.7488 64.234 35.9634 64.234C38.6202 64.234 40.2972 65.7519 40.2972 68.2085C40.2956 68.7837 40.2088 69.3555 40.0396 69.9052ZM33.0901 68.4087H38.1771C38.077 66.8497 37.3386 66.1113 35.9601 66.1113C34.4603 66.1047 33.4265 66.963 33.0885 68.4021L33.0901 68.4087Z" fill="white"/>
<path d="M45.2908 74.8281L41.2162 64.49H43.594L46.2475 71.7103L46.5478 72.6079H46.6265L46.9317 71.7103L49.5573 64.49H51.894L47.8408 74.8281H45.2908Z" fill="white"/>
<path d="M58.9683 64.5081H63.6418L63.3415 66.1654H58.6697L57.0287 75.4714C56.5692 78.0674 54.8314 79.0454 52.3946 79.0454C51.6536 79.05 50.9153 78.9562 50.199 78.7664L50.158 77.0877C50.8627 77.2062 51.5767 77.2612 52.2912 77.2518C53.75 77.2518 54.7084 76.6726 54.9283 75.455L56.5692 66.1687H53.3168L53.6171 64.5113H56.8712L57.0353 63.5514C57.4947 60.9767 59.2112 59.997 61.63 59.997C62.3784 59.9871 63.1246 60.0816 63.8469 60.2776L63.8863 61.9941C63.186 61.8408 62.4696 61.7736 61.753 61.7939C60.3155 61.7939 59.3556 62.3732 59.1357 63.599L58.9683 64.5081Z" fill="white"/>
<path d="M73.2874 69.9052H66.2181C66.3576 71.7234 67.7754 72.941 70.0121 72.941C71.1493 72.941 72.3882 72.7014 73.2267 72.2616L72.5474 74.4786C71.8483 74.8593 70.6701 75.0989 69.313 75.0989C66.0984 75.0989 63.9815 72.9213 63.9815 69.6066C63.9815 66.2918 65.9983 64.234 69.2129 64.234C71.8696 64.234 73.5467 65.7519 73.5467 68.2085C73.5446 68.7838 73.4572 69.3556 73.2874 69.9052ZM66.3379 68.4087H71.4249C71.3248 66.8497 70.5864 66.1113 69.208 66.1113C67.7147 66.1047 66.6776 66.963 66.3379 68.4021V68.4087Z" fill="white"/>
<path d="M75.603 74.2128L75.4635 71.8957C76.3824 72.5357 78.0595 73.0953 79.817 73.0953C81.1543 73.0953 82.1143 72.6752 82.1143 71.7365C82.1143 69.7789 75.685 71.5971 75.685 67.6029C75.685 65.7454 77.0831 64.1684 80.4176 64.1684C82.454 64.1684 84.0129 64.6607 84.0129 65.9045C83.9918 66.2592 83.8818 66.6029 83.6929 66.9039C82.6145 66.4371 81.4531 66.1927 80.2781 66.1851C78.6798 66.1851 77.8412 66.7841 77.8412 67.4438C77.8412 69.1799 84.351 67.662 84.351 71.556C84.351 73.7336 82.4343 75.0923 79.579 75.0923C78.2062 75.0849 76.8508 74.7851 75.603 74.2128Z" fill="white"/>
<path d="M95.4731 72.6358L95.0333 74.6525C94.2267 74.9441 93.3755 75.0929 92.5177 75.0923C89.9414 75.0923 88.842 73.7533 88.842 71.8563V66.3049H85.9079V64.49H88.842V61.6512H90.9998V64.49H95.1761V66.3082H90.9998V71.1999C90.9998 72.539 91.6989 73.1379 92.9165 73.1379C93.6155 73.1346 94.8939 72.9755 95.4731 72.6358Z" fill="white"/>
</g>
</svg>
