<svg width="406" height="52" viewBox="0 0 406 52" fill="none" xmlns="http://www.w3.org/2000/svg">
<path d="M134.667 22.6612C134.667 26.6617 133.481 29.8531 131.103 32.2303C128.435 35.0598 124.927 36.472 120.574 36.472C116.222 36.472 112.89 35.0296 110.005 32.1499C107.126 29.2701 105.683 25.7219 105.683 21.5053C105.683 17.2887 107.126 13.7405 110.005 10.8557C112.885 7.9759 116.408 6.53351 120.574 6.53351C122.68 6.53351 124.67 6.90542 126.54 7.65426C128.41 8.4031 129.943 9.45348 131.144 10.8155L128.5 13.459C127.621 12.3936 126.48 11.5593 125.078 10.9562C123.675 10.3581 122.178 10.0566 120.574 10.0566C117.453 10.0566 114.81 11.1371 112.649 13.2982C110.513 15.4844 109.447 18.2235 109.447 21.5053C109.447 24.7871 110.513 27.5211 112.649 29.7124C114.81 31.8734 117.453 32.954 120.574 32.954C123.429 32.954 125.806 32.1549 127.701 30.5517C129.596 28.9484 130.691 26.7472 130.983 23.9478H120.574V20.5052H134.466C134.601 21.254 134.667 21.9727 134.667 22.6662V22.6612Z" fill="#676C72"/>
<path d="M139.15 35.8288V7.17184H147.915C152.292 7.17184 155.805 8.49362 158.464 11.1322C161.117 13.7757 162.444 17.2284 162.444 21.5003C162.444 25.7722 161.117 29.2601 158.464 31.8886C155.81 34.5171 152.292 35.8288 147.915 35.8288H139.15ZM142.834 10.6899V32.3057H147.915C151.252 32.3057 153.88 31.3508 155.8 29.4461C157.72 27.5363 158.68 24.8877 158.68 21.5003C158.68 18.1129 157.72 15.4945 155.8 13.5747C153.88 11.6548 151.252 10.6949 147.915 10.6949H142.834V10.6899Z" fill="#676C72"/>
<path d="M194.388 22.6612C194.388 26.6618 193.202 29.8531 190.825 32.2303C188.156 35.0598 184.648 36.4721 180.296 36.4721C175.943 36.4721 172.611 35.0297 169.726 32.1499C166.847 29.2701 165.404 25.7219 165.404 21.5053C165.404 17.2887 166.847 13.7405 169.726 10.8557C172.606 7.97594 176.129 6.53354 180.296 6.53354C182.401 6.53354 184.392 6.90545 186.261 7.65429C188.131 8.40313 189.664 9.45351 190.865 10.8155L188.221 13.4591C187.342 12.3936 186.201 11.5593 184.799 10.9562C183.397 10.3582 181.899 10.0566 180.296 10.0566C177.175 10.0566 174.531 11.1371 172.37 13.2982C170.234 15.4844 169.169 18.2235 169.169 21.5053C169.169 24.7871 170.234 27.5212 172.37 29.7124C174.531 31.8735 177.175 32.954 180.296 32.954C183.15 32.954 185.527 32.1549 187.422 30.5517C189.317 28.9485 190.413 26.7472 190.704 23.9478H180.296V20.5052H194.187C194.323 21.254 194.388 21.9727 194.388 22.6663V22.6612Z" fill="#676C72"/>
<path d="M208.153 35.8288H204.073L214.878 7.17184H219.039L229.845 35.8288H225.764L223 28.064H210.953L208.153 35.8288ZM216.878 11.69L212.194 24.6213H221.723L217.039 11.69H216.878Z" fill="#676C72"/>
<path d="M236.253 7.17184V35.8288H232.569V7.17184H236.253Z" fill="#676C72"/>
<path d="M249.224 45.1164C248.128 45.1164 247.103 44.9757 246.143 44.6943C245.183 44.4128 244.309 44.0208 243.52 43.5132C242.731 43.0056 242.057 42.4075 241.499 41.714C240.936 41.0204 240.514 40.2465 240.218 39.3921L243.701 37.9497C244.103 39.0955 244.796 40.0153 245.781 40.7138C246.766 41.4074 247.917 41.7542 249.224 41.7542C251.224 41.7542 252.787 41.1561 253.908 39.955C255.029 38.7538 255.592 37.1003 255.592 34.9895V33.1099H255.431C254.737 34.1502 253.797 34.9694 252.611 35.5725C251.425 36.1706 250.134 36.4721 248.747 36.4721C246.183 36.4721 243.982 35.472 242.143 33.4717C240.328 31.4162 239.419 28.9334 239.419 26.0285C239.419 23.1236 240.323 20.651 242.143 18.6256C243.982 16.6002 246.183 15.585 248.747 15.585C250.134 15.585 251.42 15.8865 252.611 16.4846C253.797 17.0827 254.737 17.9069 255.431 18.9472H255.592V16.2233H259.115V34.9945C259.115 38.1407 258.22 40.6133 256.431 42.3975C254.617 44.2118 252.214 45.1214 249.224 45.1214V45.1164ZM249.345 33.1099C251.159 33.1099 252.642 32.4565 253.787 31.1498C254.989 29.8431 255.587 28.1343 255.587 26.0285C255.587 23.9227 254.989 22.2793 253.787 20.9475C252.611 19.6157 251.134 18.9472 249.345 18.9472C247.555 18.9472 246.103 19.6157 244.902 20.9475C243.701 22.2843 243.103 23.978 243.103 26.0285C243.103 28.0791 243.701 29.8029 244.902 31.1146C246.103 32.4515 247.586 33.1149 249.345 33.1149V33.1099Z" fill="#676C72"/>
<path d="M268.357 9.45349C268.357 10.1722 268.101 10.7903 267.598 11.2929C267.091 11.8005 266.478 12.0518 265.759 12.0518C265.04 12.0518 264.422 11.8005 263.92 11.2929C263.412 10.7853 263.161 10.1722 263.161 9.45349C263.161 8.7348 263.412 8.12166 263.92 7.61406C264.427 7.10645 265.04 6.85516 265.759 6.85516C266.478 6.85516 267.091 7.11148 267.598 7.61406C268.106 8.12166 268.357 8.7348 268.357 9.45349ZM267.598 16.2182V35.8338H263.915V16.2182H267.598Z" fill="#676C72"/>
<path d="M281.007 36.4721C278.127 36.4721 275.75 35.487 273.881 33.5119C272.011 31.5368 271.081 29.044 271.081 26.0285C271.081 23.0131 271.986 20.5505 273.805 18.5653C275.62 16.5751 277.941 15.585 280.771 15.585C283.6 15.585 285.993 16.5248 287.717 18.4095C289.435 20.2891 290.3 22.9276 290.3 26.315L290.26 26.7171H274.851C274.906 28.6369 275.544 30.1849 276.77 31.3609C277.997 32.5369 279.464 33.1199 281.173 33.1199C283.52 33.1199 285.365 31.9439 286.696 29.5968L289.978 31.2001C289.099 32.8535 287.877 34.1502 286.314 35.085C284.751 36.0198 282.987 36.4872 281.012 36.4872L281.007 36.4721ZM275.122 23.6614H286.37C286.264 22.2994 285.711 21.1736 284.706 20.2791C283.706 19.3845 282.364 18.9372 280.686 18.9372C279.298 18.9372 278.102 19.3644 277.102 20.2188C276.102 21.0731 275.439 22.219 275.122 23.6614Z" fill="#676C72"/>
<path d="M297.336 35.8287H293.652V16.2181H297.175V19.4195H297.336C297.707 18.3792 298.476 17.4947 299.637 16.7559C300.798 16.0221 301.939 15.6552 303.06 15.6552C304.181 15.6552 305.035 15.8161 305.784 16.1377L304.663 19.701C304.211 19.515 303.487 19.4195 302.502 19.4195C301.115 19.4195 299.909 19.9824 298.878 21.1032C297.848 22.2239 297.336 23.5306 297.336 25.0233V35.8287Z" fill="#676C72"/>
<path d="M322.394 30.3858C322.394 32.0946 321.645 33.537 320.153 34.708C318.66 35.884 316.775 36.467 314.509 36.467C312.534 36.467 310.8 35.9544 309.307 34.9241C307.814 33.8989 306.744 32.5419 306.106 30.8633L309.388 29.4611C309.87 30.6371 310.569 31.5518 311.488 32.2052C312.408 32.8585 313.418 33.1852 314.509 33.1852C315.685 33.1852 316.665 32.9339 317.449 32.4263C318.238 31.9187 318.63 31.3206 318.63 30.6271C318.63 29.3706 317.67 28.4509 315.75 27.8629L312.388 27.0236C308.573 26.0637 306.664 24.2242 306.664 21.5003C306.664 19.7111 307.392 18.2788 308.845 17.1982C310.297 16.1177 312.162 15.5749 314.428 15.5749C316.162 15.5749 317.73 15.987 319.133 16.8163C320.535 17.6455 321.515 18.7512 322.073 20.1383L318.791 21.5003C318.419 20.671 317.811 20.0277 316.971 19.5603C316.132 19.0929 315.192 18.8617 314.152 18.8617C313.192 18.8617 312.333 19.103 311.569 19.5804C310.81 20.0629 310.428 20.6459 310.428 21.3395C310.428 22.4602 311.483 23.2593 313.589 23.7418L316.549 24.5007C320.444 25.4606 322.394 27.4206 322.394 30.3858Z" fill="#676C72"/>
<path d="M134.667 22.6612C134.667 26.6617 133.481 29.8531 131.103 32.2303C128.435 35.0598 124.927 36.472 120.574 36.472C116.222 36.472 112.89 35.0296 110.005 32.1499C107.126 29.2701 105.683 25.7219 105.683 21.5053C105.683 17.2887 107.126 13.7405 110.005 10.8557C112.885 7.9759 116.408 6.53351 120.574 6.53351C122.68 6.53351 124.67 6.90542 126.54 7.65426C128.41 8.4031 129.943 9.45348 131.144 10.8155L128.5 13.459C127.621 12.3936 126.48 11.5593 125.078 10.9562C123.675 10.3581 122.178 10.0566 120.574 10.0566C117.453 10.0566 114.81 11.1371 112.649 13.2982C110.513 15.4844 109.447 18.2235 109.447 21.5053C109.447 24.7871 110.513 27.5211 112.649 29.7124C114.81 31.8734 117.453 32.954 120.574 32.954C123.429 32.954 125.806 32.1549 127.701 30.5517C129.596 28.9484 130.691 26.7472 130.983 23.9478H120.574V20.5052H134.466C134.601 21.254 134.667 21.9727 134.667 22.6662V22.6612Z" fill="#676C72"/>
<path d="M139.15 35.8288V7.17184H147.915C152.292 7.17184 155.805 8.49362 158.464 11.1322C161.117 13.7757 162.444 17.2284 162.444 21.5003C162.444 25.7722 161.117 29.2601 158.464 31.8886C155.81 34.5171 152.292 35.8288 147.915 35.8288H139.15ZM142.834 10.6899V32.3057H147.915C151.252 32.3057 153.88 31.3508 155.8 29.4461C157.72 27.5363 158.68 24.8877 158.68 21.5003C158.68 18.1129 157.72 15.4945 155.8 13.5747C153.88 11.6548 151.252 10.6949 147.915 10.6949H142.834V10.6899Z" fill="#676C72"/>
<path d="M194.388 22.6612C194.388 26.6618 193.202 29.8531 190.825 32.2303C188.156 35.0598 184.648 36.4721 180.296 36.4721C175.943 36.4721 172.611 35.0297 169.726 32.1499C166.847 29.2701 165.404 25.7219 165.404 21.5053C165.404 17.2887 166.847 13.7405 169.726 10.8557C172.606 7.97594 176.129 6.53354 180.296 6.53354C182.401 6.53354 184.392 6.90545 186.261 7.65429C188.131 8.40313 189.664 9.45351 190.865 10.8155L188.221 13.4591C187.342 12.3936 186.201 11.5593 184.799 10.9562C183.397 10.3582 181.899 10.0566 180.296 10.0566C177.175 10.0566 174.531 11.1371 172.37 13.2982C170.234 15.4844 169.169 18.2235 169.169 21.5053C169.169 24.7871 170.234 27.5212 172.37 29.7124C174.531 31.8735 177.175 32.954 180.296 32.954C183.15 32.954 185.527 32.1549 187.422 30.5517C189.317 28.9485 190.413 26.7472 190.704 23.9478H180.296V20.5052H194.187C194.323 21.254 194.388 21.9727 194.388 22.6663V22.6612Z" fill="#676C72"/>
<path d="M208.153 35.8288H204.073L214.878 7.17184H219.039L229.845 35.8288H225.764L223 28.064H210.953L208.153 35.8288ZM216.878 11.69L212.194 24.6213H221.723L217.039 11.69H216.878Z" fill="#676C72"/>
<path d="M236.253 7.17184V35.8288H232.569V7.17184H236.253Z" fill="#676C72"/>
<path d="M249.224 45.1164C248.128 45.1164 247.103 44.9757 246.143 44.6943C245.183 44.4128 244.309 44.0208 243.52 43.5132C242.731 43.0056 242.057 42.4075 241.499 41.714C240.936 41.0204 240.514 40.2465 240.218 39.3921L243.701 37.9497C244.103 39.0955 244.796 40.0153 245.781 40.7138C246.766 41.4074 247.917 41.7542 249.224 41.7542C251.224 41.7542 252.787 41.1561 253.908 39.955C255.029 38.7538 255.592 37.1003 255.592 34.9895V33.1099H255.431C254.737 34.1502 253.797 34.9694 252.611 35.5725C251.425 36.1706 250.134 36.4721 248.747 36.4721C246.183 36.4721 243.982 35.472 242.143 33.4717C240.328 31.4162 239.419 28.9334 239.419 26.0285C239.419 23.1236 240.323 20.651 242.143 18.6256C243.982 16.6002 246.183 15.585 248.747 15.585C250.134 15.585 251.42 15.8865 252.611 16.4846C253.797 17.0827 254.737 17.9069 255.431 18.9472H255.592V16.2233H259.115V34.9945C259.115 38.1407 258.22 40.6133 256.431 42.3975C254.617 44.2118 252.214 45.1214 249.224 45.1214V45.1164ZM249.345 33.1099C251.159 33.1099 252.642 32.4565 253.787 31.1498C254.989 29.8431 255.587 28.1343 255.587 26.0285C255.587 23.9227 254.989 22.2793 253.787 20.9475C252.611 19.6157 251.134 18.9472 249.345 18.9472C247.555 18.9472 246.103 19.6157 244.902 20.9475C243.701 22.2843 243.103 23.978 243.103 26.0285C243.103 28.0791 243.701 29.8029 244.902 31.1146C246.103 32.4515 247.586 33.1149 249.345 33.1149V33.1099Z" fill="#676C72"/>
<path d="M268.357 9.45349C268.357 10.1722 268.101 10.7903 267.598 11.2929C267.091 11.8005 266.478 12.0518 265.759 12.0518C265.04 12.0518 264.422 11.8005 263.92 11.2929C263.412 10.7853 263.161 10.1722 263.161 9.45349C263.161 8.7348 263.412 8.12166 263.92 7.61406C264.427 7.10645 265.04 6.85516 265.759 6.85516C266.478 6.85516 267.091 7.11148 267.598 7.61406C268.106 8.12166 268.357 8.7348 268.357 9.45349ZM267.598 16.2182V35.8338H263.915V16.2182H267.598Z" fill="#676C72"/>
<path d="M281.007 36.4721C278.127 36.4721 275.75 35.487 273.881 33.5119C272.011 31.5368 271.081 29.044 271.081 26.0285C271.081 23.0131 271.986 20.5505 273.805 18.5653C275.62 16.5751 277.941 15.585 280.771 15.585C283.6 15.585 285.993 16.5248 287.717 18.4095C289.435 20.2891 290.3 22.9276 290.3 26.315L290.26 26.7171H274.851C274.906 28.6369 275.544 30.1849 276.77 31.3609C277.997 32.5369 279.464 33.1199 281.173 33.1199C283.52 33.1199 285.365 31.9439 286.696 29.5968L289.978 31.2001C289.099 32.8535 287.877 34.1502 286.314 35.085C284.751 36.0198 282.987 36.4872 281.012 36.4872L281.007 36.4721ZM275.122 23.6614H286.37C286.264 22.2994 285.711 21.1736 284.706 20.2791C283.706 19.3845 282.364 18.9372 280.686 18.9372C279.298 18.9372 278.102 19.3644 277.102 20.2188C276.102 21.0731 275.439 22.219 275.122 23.6614Z" fill="#676C72"/>
<path d="M297.336 35.8287H293.652V16.2181H297.175V19.4195H297.336C297.707 18.3792 298.476 17.4947 299.637 16.7559C300.798 16.0221 301.939 15.6552 303.06 15.6552C304.181 15.6552 305.035 15.8161 305.784 16.1377L304.663 19.701C304.211 19.515 303.487 19.4195 302.502 19.4195C301.115 19.4195 299.909 19.9824 298.878 21.1032C297.848 22.2239 297.336 23.5306 297.336 25.0233V35.8287Z" fill="#676C72"/>
<path d="M322.394 30.3858C322.394 32.0946 321.645 33.537 320.153 34.708C318.66 35.884 316.775 36.467 314.509 36.467C312.534 36.467 310.8 35.9544 309.307 34.9241C307.814 33.8989 306.744 32.5419 306.106 30.8633L309.388 29.4611C309.87 30.6371 310.569 31.5518 311.488 32.2052C312.408 32.8585 313.418 33.1852 314.509 33.1852C315.685 33.1852 316.665 32.9339 317.449 32.4263C318.238 31.9187 318.63 31.3206 318.63 30.6271C318.63 29.3706 317.67 28.4509 315.75 27.8629L312.388 27.0236C308.573 26.0637 306.664 24.2242 306.664 21.5003C306.664 19.7111 307.392 18.2788 308.845 17.1982C310.297 16.1177 312.162 15.5749 314.428 15.5749C316.162 15.5749 317.73 15.987 319.133 16.8163C320.535 17.6455 321.515 18.7512 322.073 20.1383L318.791 21.5003C318.419 20.671 317.811 20.0277 316.971 19.5603C316.132 19.0929 315.192 18.8617 314.152 18.8617C313.192 18.8617 312.333 19.103 311.569 19.5804C310.81 20.0629 310.428 20.6459 310.428 21.3395C310.428 22.4602 311.483 23.2593 313.589 23.7418L316.549 24.5007C320.444 25.4606 322.394 27.4206 322.394 30.3858Z" fill="#676C72"/>
<path fill-rule="evenodd" clip-rule="evenodd" d="M27.3159 4.90754L4.28778 18.2007C1.1316 20.0251 0.0510551 24.0557 1.87541 27.2119C3.69474 30.3681 7.73043 31.4486 10.8866 29.6243L33.9147 16.3311C37.0709 14.5118 38.1514 10.4761 36.3271 7.31992C34.5077 4.16373 30.472 3.08319 27.3159 4.90754Z" fill="#EA4334"/>
<path fill-rule="evenodd" clip-rule="evenodd" d="M33.7039 31.6043L10.6758 18.3062C7.51958 16.4868 3.48892 17.5674 1.66456 20.7185C-0.154769 23.8747 0.925772 27.9054 4.07693 29.7297L27.105 43.0229C30.2612 44.8422 34.2919 43.7617 36.1162 40.6105C37.9356 37.4543 36.855 33.4237 33.7039 31.5993V31.6043Z" fill="#4285F4"/>
<path fill-rule="evenodd" clip-rule="evenodd" d="M49.1028 31.8105L72.1309 18.5173C75.2871 16.698 79.3177 17.7786 81.1421 20.9297C82.9614 24.0859 81.8809 28.1166 78.7297 29.9409L55.7016 43.2341C52.5455 45.0534 48.5148 43.9729 46.6904 40.8217C44.8711 37.6655 45.9517 33.6349 49.1028 31.8105Z" fill="#FCBC05"/>
<path fill-rule="evenodd" clip-rule="evenodd" d="M55.9076 5.11857L78.9357 18.4117C82.0919 20.2311 83.1724 24.2668 81.3481 27.4229C79.5287 30.5791 75.493 31.6597 72.3369 29.8353L49.3088 16.5422C46.1526 14.7228 45.0721 10.6871 46.8964 7.53094C48.7157 4.37476 52.7514 3.29422 55.9076 5.11857Z" fill="#0D9D58"/>
<path d="M404.073 49.8826H389.267C380.914 46.1736 374.416 39.7959 369.817 30.8249C369.862 30.6741 369.877 30.5133 369.852 30.3474C368.777 22.2911 368.5 12.5462 369.083 2.90673C369.124 2.26343 368.631 1.71059 367.988 1.67039C367.385 1.63018 366.792 2.12271 366.751 2.76601C366.314 10.0132 366.354 17.3307 366.852 23.9697C365.827 21.1352 364.947 18.1047 364.218 14.8681C364.203 14.8027 364.183 14.7424 364.158 14.6871C364.505 10.4655 365.168 6.04281 366.143 1.41407C366.279 0.780827 365.872 0.162657 365.239 0.0269611C364.61 -0.108735 363.987 0.298353 363.856 0.926574C363.168 4.17825 362.64 7.33443 362.253 10.3951C362.032 10.5007 361.851 10.6766 361.736 10.8877C360.585 10.6916 359.434 10.6766 358.288 10.8525C358.223 10.6464 358.097 10.4655 357.931 10.3248C357.479 7.15853 356.8 3.99732 355.886 0.841136C355.71 0.222966 355.061 -0.133864 354.438 0.0470642C353.82 0.227992 353.463 0.876316 353.644 1.49449C354.875 5.73121 355.664 9.98301 356.026 14.2449C356.031 14.3253 356.036 14.4007 356.046 14.4811C356.046 14.4962 356.041 14.5112 356.036 14.5263C356.021 14.5866 356.006 14.6469 356.001 14.7123C355.609 19.3259 354.544 23.6481 352.815 27.6687C353.519 20.6577 353.73 12.325 353.443 2.79113C353.423 2.14784 352.895 1.64023 352.237 1.66034C351.594 1.68044 351.086 2.2182 351.106 2.8615C351.473 15.1143 351.016 25.3468 349.744 33.2624C349.734 33.3277 349.734 33.3931 349.734 33.4534C345.643 39.821 339.617 45.3092 331.676 49.8675H319.022C318.489 49.8675 318.057 50.2997 318.057 50.8325C318.057 51.3652 318.489 51.7974 319.022 51.7974H404.083C404.615 51.7974 405.048 51.3652 405.048 50.8325C405.048 50.2997 404.615 49.8675 404.083 49.8675L404.073 49.8826ZM361.771 27.4928C361.937 29.5383 362.193 31.5335 362.54 33.4785C362.037 32.1718 361.575 30.8751 361.163 29.5835C361.379 28.8849 361.585 28.1864 361.776 27.4928H361.771ZM358.368 14.2348C358.383 14.4308 358.394 14.6218 358.409 14.8178C358.424 15.0138 358.439 15.2098 358.449 15.4008H361.484C361.278 18.6173 360.766 21.9041 359.936 25.2664C359.248 22.4721 358.78 19.723 358.534 17.0241C358.484 16.4813 358.449 15.9385 358.414 15.4008C358.404 15.2048 358.388 15.0088 358.378 14.8178C358.368 14.6218 358.363 14.4258 358.358 14.2348H358.368ZM358.102 27.5079C358.293 28.1964 358.489 28.8849 358.705 29.5785C358.147 31.3224 357.514 33.0815 356.79 34.8606C357.363 32.413 357.8 29.9605 358.097 27.5129L358.102 27.5079ZM348.945 49.8826H336.154C345.914 43.5451 352.508 35.6546 355.876 26.2916C355.031 34.157 352.719 42.0324 348.945 49.8826ZM359.6 49.8826C359.73 48.782 359.846 47.6512 359.946 46.4802C360.047 47.6512 360.168 48.782 360.293 49.8826H359.595H359.6ZM368.164 49.8826H361.469C360.942 45.4499 360.635 40.4693 360.545 34.8103C360.534 34.7852 360.524 34.7601 360.514 34.74C360.519 34.3278 360.524 33.9057 360.529 33.4885C360.524 32.8503 360.519 32.207 360.514 31.5536C360.514 30.9254 360.514 30.2972 360.514 29.6489C360.514 29.3322 360.258 29.0709 359.941 29.0659C359.625 29.0709 359.368 29.3322 359.368 29.6489C359.368 30.3223 359.368 30.9757 359.368 31.629C359.368 32.2572 359.363 32.8754 359.353 33.4885C359.353 33.8906 359.358 34.2977 359.368 34.6947C359.358 34.7199 359.353 34.74 359.343 34.7651C359.253 40.4442 358.946 45.4398 358.419 49.8876H351.528C351.78 49.3549 357.504 39.4943 359.343 34.7651C359.348 34.348 359.353 33.9157 359.358 33.4936C359.353 32.8553 359.348 32.212 359.343 31.5586C359.343 30.9254 359.343 30.2972 359.343 29.6489C359.343 29.3272 359.605 29.0659 359.926 29.0659C359.926 29.0659 359.931 29.0659 359.936 29.0659C359.936 29.0659 359.941 29.0659 359.946 29.0659C360.268 29.0659 360.529 29.3272 360.529 29.6489C360.529 30.272 360.529 30.8751 360.529 31.4833C360.529 32.1617 360.524 32.8302 360.514 33.4936C360.514 33.9358 360.519 34.3831 360.529 34.8153C362.329 39.3838 368.103 49.7519 368.189 49.8876H368.148L368.164 49.8826ZM370.963 49.8826H370.852C370.571 49.3951 370.3 48.8976 370.038 48.4C366.063 40.8714 364.017 32.2824 363.887 22.5173C367.988 35.2074 374.767 44.3693 384.146 49.8876H370.968L370.963 49.8826Z" fill="#676C72"/>
</svg>
