<svg width="570" height="240" viewBox="0 0 570 240" fill="none" xmlns="http://www.w3.org/2000/svg">
<path d="M51.0028 188.582V144.716C46.7975 141.099 41.5531 138.89 36.0048 138.89C23.9967 138.89 16.9486 148.487 16.9486 166.572C16.9486 183.866 23.5458 193.453 35.701 193.453C41.1022 193.453 46.6504 191.572 51.0028 188.582ZM73.2056 199.905L57.4529 208.866L52.3457 197.234C47.1014 203.995 39.2985 208.866 29.2509 208.866C10.0476 208.866 0 192.199 0 166.408C0 138.428 11.8513 123.323 30.7507 123.323C39.6024 123.323 46.5034 126.786 51.0028 133.239V92.0345H67.1966V187.328L73.2056 199.905ZM101.398 156.194H139.647C138.902 143.925 133.354 138.109 123.003 138.109C111.749 138.109 103.946 144.871 101.398 156.194ZM153.597 167.98H100.496C101.555 182.293 112.2 191.88 129.002 191.88C137.55 191.88 146.852 190 153.146 186.537L148.048 203.995C142.804 206.975 133.952 208.866 123.748 208.866C99.6039 208.866 83.6944 191.726 83.6944 165.627C83.6944 139.363 98.8491 123.333 123.003 123.333C142.951 123.333 155.547 135.284 155.547 154.622C155.547 159.02 154.802 164.209 153.597 167.98ZM193.052 206.821L162.448 125.378H180.299L200.247 182.293L202.502 189.373H203.1L205.344 182.293L225.155 125.378H242.702L212.245 206.821H193.052ZM295.802 125.532H330.896L328.651 138.582H293.548L281.246 211.856C277.795 232.293 264.748 240 246.446 240C238.046 240 234.144 238.746 229.949 237.801L229.645 224.587C233.85 225.378 238.8 225.851 245.701 225.851C256.651 225.851 263.846 221.289 265.503 211.702L277.795 138.582H253.348L255.602 125.532H280.05L281.246 117.98C284.696 97.6963 297.596 90 315.751 90C324.299 90 328.651 91.2536 332.395 92.1989L332.699 105.721C328.504 104.622 323.554 104.149 316.652 104.149C305.85 104.149 298.655 108.701 296.998 118.298L295.802 125.532ZM351.148 156.194H389.397C388.652 143.925 383.094 138.109 372.753 138.109C361.499 138.109 353.696 144.871 351.148 156.194ZM403.346 167.98H350.246C351.295 182.293 361.95 191.88 378.752 191.88C387.3 191.88 396.602 190 402.896 186.537L397.798 203.995C392.554 206.975 383.702 208.866 373.498 208.866C349.344 208.866 333.444 191.726 333.444 165.627C333.444 139.363 348.599 123.333 372.753 123.333C392.701 123.333 405.297 135.284 405.297 154.622C405.297 159.02 404.552 164.209 403.346 167.98ZM420.746 201.95L419.697 183.711C426.598 188.736 439.194 193.144 452.399 193.144C462.446 193.144 469.651 189.836 469.651 182.448C469.651 167.045 421.344 181.348 421.344 149.905C421.344 135.273 431.852 122.861 456.898 122.861C472.2 122.861 483.894 126.786 483.894 136.537C483.894 139.527 482.698 142.045 481.502 144.398C474.895 141.099 464.544 138.736 455.849 138.736C443.851 138.736 437.548 143.453 437.548 148.642C437.548 162.318 486.443 150.378 486.443 181.04C486.443 198.169 472.053 208.866 450.595 208.866C436.048 208.866 425.098 203.995 420.746 201.95ZM570 189.527L566.697 205.403C562.795 207.139 554.992 208.866 547.797 208.866C528.447 208.866 520.203 198.333 520.203 183.393V139.681H498.147V125.378H520.203V103.05H536.397V125.378H567.745V139.681H536.397V178.204C536.397 188.736 541.651 193.453 550.797 193.453C556.051 193.453 565.648 192.199 570 189.527Z" fill="#F7F7F7"/>
<path d="M107.573 40.4518C105.24 38.8172 103.309 36.4321 101.986 33.5505C100.623 30.6205 99.9371 27.3878 99.9371 23.8403C99.9371 20.2928 100.623 17.0601 101.986 14.1301C103.309 11.2486 105.24 8.86339 107.573 7.22888C109.926 5.55805 112.582 4.68631 115.298 4.71053C117.395 4.69842 119.483 5.18272 121.434 6.15132C123.355 7.0957 124.934 8.43963 126.179 10.1831L123.659 13.3068C122.699 11.8418 121.444 10.7158 120.042 10.0136C118.533 9.23872 116.925 8.83918 115.298 8.85128C113.259 8.85128 111.259 9.49298 109.485 10.7279C107.671 11.9629 106.172 13.779 105.132 15.9826C104.044 18.2588 103.495 20.874 103.495 23.8403C103.495 26.8066 104.044 29.4219 105.132 31.686C106.172 33.8895 107.671 35.7056 109.485 36.9527C111.259 38.1877 113.259 38.8294 115.298 38.8172C117.278 38.8172 118.944 38.4419 120.287 37.667C121.591 36.9285 122.777 35.8993 123.777 34.6281C124.532 33.611 125.12 32.4366 125.522 31.1532C125.973 29.7245 126.237 28.2232 126.306 26.6977H115.376V22.6659H129.619C129.756 23.5497 129.825 24.4336 129.825 25.3295C129.835 27.5573 129.541 29.773 128.962 31.8918C128.394 33.9985 127.443 35.9115 126.188 37.4975C123.404 41.1419 119.768 42.9701 115.298 42.9701C112.592 42.9943 109.926 42.1226 107.573 40.4518ZM146.47 37.8486C147.568 37.0496 148.46 35.8872 149.058 34.507C149.705 33.0541 150.028 31.3712 150.028 29.4703C150.028 27.5573 149.705 25.8744 149.058 24.4215C148.46 23.0412 147.568 21.8789 146.47 21.0798C145.421 20.3049 144.215 19.8933 142.99 19.9054C141.784 19.9054 140.598 20.3049 139.559 21.0798C138.471 21.8789 137.569 23.0412 136.971 24.4215C136.314 25.8744 135.991 27.5573 135.991 29.4582C135.991 31.3712 136.314 33.042 136.961 34.4949C137.559 35.8872 138.461 37.0496 139.559 37.8486C140.588 38.6235 141.784 39.0352 142.99 39.0231C144.215 39.0352 145.421 38.6235 146.47 37.8486ZM137.569 41.2024C135.981 40.0401 134.677 38.3572 133.825 36.3352C132.923 34.277 132.472 31.9886 132.472 29.4582C132.472 26.9398 132.923 24.6515 133.825 22.5933C134.677 20.5713 135.981 18.8884 137.569 17.7261C139.167 16.5516 140.98 15.9584 142.99 15.9584C145.009 15.9584 146.823 16.5516 148.44 17.7261C150.028 18.8884 151.342 20.5592 152.204 22.5811C153.096 24.6515 153.547 26.9398 153.547 29.4582C153.547 31.9886 153.096 34.277 152.204 36.3352C151.342 38.3572 150.028 40.0401 148.44 41.2024C146.823 42.3768 145.009 42.958 142.99 42.958C140.98 42.958 139.167 42.3768 137.569 41.2024ZM169.937 37.8486C171.035 37.0496 171.927 35.8872 172.525 34.507C173.172 33.0541 173.496 31.3712 173.496 29.4703C173.496 27.5573 173.172 25.8865 172.525 24.4336C171.927 23.0412 171.035 21.891 169.937 21.0798C168.888 20.3049 167.692 19.9054 166.467 19.9054C165.252 19.9054 164.065 20.3049 163.026 21.0798C161.938 21.891 161.036 23.0412 160.438 24.4336C159.792 25.8744 159.468 27.5573 159.468 29.4703C159.468 31.3712 159.792 33.0541 160.438 34.507C161.036 35.8872 161.938 37.0496 163.026 37.8486C164.065 38.6235 165.252 39.0352 166.467 39.0231C167.692 39.0352 168.888 38.6235 169.937 37.8486ZM161.036 41.2024C159.448 40.0401 158.155 38.3572 157.292 36.3352C156.4 34.277 155.949 31.9886 155.949 29.4582C155.949 26.9398 156.4 24.6515 157.292 22.5933C158.155 20.5713 159.448 18.8884 161.036 17.7261C162.644 16.5516 164.448 15.9584 166.457 15.9584C168.477 15.9584 170.29 16.5516 171.908 17.7261C173.505 18.8763 174.809 20.5592 175.672 22.5811C176.574 24.6515 177.015 26.9398 177.015 29.4582C177.015 31.9886 176.574 34.277 175.672 36.3352C174.809 38.3572 173.505 40.0401 171.908 41.1903C170.29 42.3768 168.477 42.958 166.457 42.958C164.448 42.958 162.644 42.3768 161.036 41.2024ZM193.042 37.8729C194.091 37.0617 194.944 35.9115 195.502 34.5554C196.13 33.1146 196.434 31.4196 196.434 29.4582C196.434 27.5089 196.13 25.8017 195.502 24.3488C194.885 22.8959 194.061 21.7821 193.042 21.0314C192.032 20.2807 190.866 19.8933 189.689 19.9054C188.503 19.8933 187.347 20.2928 186.337 21.0556C185.288 21.8668 184.435 23.017 183.867 24.373C183.249 25.8138 182.935 27.5089 182.935 29.4582C182.935 31.4196 183.249 33.1146 183.867 34.5554C184.435 35.9115 185.288 37.0617 186.337 37.8729C188.395 39.4105 190.973 39.4105 193.042 37.8729ZM183.524 51.8086C181.945 50.3435 180.887 48.6364 180.328 46.6992L183.602 45.0042C184.004 46.4813 184.778 47.7647 185.817 48.6606C186.886 49.605 188.141 50.0651 189.611 50.0651C191.787 50.0651 193.463 49.2902 194.64 47.7283C195.816 46.1665 196.404 43.975 196.394 41.1661V38.4661H196.228C195.561 39.7495 194.61 40.8271 193.365 41.6867C192.13 42.5463 190.719 42.9701 189.15 42.9701C187.425 42.9701 185.749 42.3768 184.298 41.2266C182.788 40.028 181.563 38.3693 180.74 36.3958C179.857 34.3375 179.416 32.0371 179.416 29.4703C179.416 26.9035 179.857 24.591 180.74 22.5448C181.563 20.5713 182.788 18.9126 184.298 17.7139C185.749 16.5637 187.425 15.9584 189.15 15.9705C190.719 15.9705 192.13 16.3942 193.365 17.2418C194.61 18.1014 195.561 19.1789 196.228 20.4744H196.394V16.7817H199.757V41.1177C199.757 43.9145 199.315 46.2875 198.433 48.2247C197.61 50.0893 196.345 51.6027 194.806 52.5713C193.277 53.5157 191.542 54 189.611 54C187.121 54 185.092 53.2736 183.524 51.8086ZM203.972 5.53384H207.491V42.1347H203.972V5.53384ZM226.949 26.6492C226.88 25.5838 226.635 24.5425 226.243 23.5861C225.822 22.5569 225.155 21.6852 224.234 20.9708C223.312 20.2565 222.126 19.9054 220.695 19.9054C219.215 19.8691 217.784 20.535 216.676 21.7457C215.539 22.9686 214.833 24.6031 214.529 26.6492H226.949ZM215.705 41.2266C214.157 40.0643 212.882 38.4056 212.049 36.42C211.167 34.3738 210.726 32.0492 210.726 29.4582C210.706 27.1093 211.128 24.7968 211.961 22.678C212.755 20.6803 213.98 18.9731 215.509 17.7745C217.039 16.5637 218.793 15.9584 220.783 15.9584C222.773 15.9584 224.518 16.5153 226.018 17.6171C227.517 18.731 228.723 20.3534 229.478 22.3027C230.272 24.3125 230.674 26.6371 230.674 29.2524C230.684 29.6035 230.664 29.9425 230.595 30.2815H214.274C214.333 32.1824 214.706 33.8048 215.392 35.1124C216.029 36.3594 216.921 37.3765 217.98 38.0424C218.97 38.6841 220.077 39.011 221.195 39.0231C223.783 39.0231 225.792 37.4491 227.204 34.3133L230.311 36.1536C229.449 38.1634 228.194 39.8585 226.645 41.0934C225.086 42.3284 223.214 42.958 221.038 42.958C219.048 42.958 217.264 42.3768 215.705 41.2266ZM253.112 38.006C256.611 38.006 259.386 36.759 261.434 34.2648C263.473 31.7828 264.493 28.308 264.493 23.8403C264.493 19.3727 263.473 15.8978 261.434 13.4037C259.386 10.9217 256.611 9.67459 253.112 9.67459H247.642V38.006H253.112ZM244.123 5.53384H253.112C256.151 5.53384 258.797 6.30871 261.062 7.85847C263.267 9.34769 265.081 11.5876 266.277 14.3239C267.492 17.0844 268.1 20.2565 268.1 23.8403C268.1 27.412 267.492 30.5842 266.277 33.3447C265.081 36.081 263.267 38.3329 261.062 39.8222C258.797 41.3719 256.141 42.1468 253.112 42.1468H244.123V5.53384ZM287.293 26.6492C287.235 25.5838 286.99 24.5425 286.588 23.5861C286.176 22.5569 285.509 21.6852 284.588 20.9708C283.657 20.2565 282.48 19.9054 281.039 19.9054C279.569 19.8691 278.128 20.5229 277.03 21.7457C275.893 22.9686 275.178 24.6031 274.874 26.6492H287.293ZM276.06 41.2266C274.501 40.0643 273.237 38.4056 272.403 36.42C271.511 34.3738 271.07 32.0492 271.07 29.4582C271.051 27.1093 271.482 24.7968 272.315 22.678C273.109 20.6803 274.335 18.9731 275.854 17.7745C277.393 16.5637 279.148 15.9584 281.137 15.9584C283.118 15.9584 284.862 16.5153 286.372 17.6171C287.872 18.731 289.078 20.3534 289.832 22.3027C290.626 24.3125 291.028 26.6371 291.028 29.2524C291.038 29.6035 291.018 29.9425 290.95 30.2815H274.638C274.687 32.1824 275.06 33.8048 275.756 35.1124C276.383 36.3594 277.275 37.3765 278.344 38.0424C279.334 38.6841 280.432 39.011 281.549 39.0231C284.147 39.0231 286.147 37.4491 287.548 34.3133L290.656 36.1536C289.803 38.1634 288.538 39.8585 286.999 41.0934C285.441 42.3284 283.569 42.958 281.392 42.958C279.402 42.958 277.628 42.3768 276.06 41.2266ZM291.861 16.7817H295.665L301.958 37.0253H302.037L308.418 16.7817H312.143L303.732 42.1468H300.174L291.861 16.7817ZM329.817 26.6492C329.748 25.5838 329.513 24.5425 329.111 23.5861C328.7 22.5569 328.033 21.6852 327.112 20.9708C326.18 20.2565 325.004 19.9054 323.563 19.9054C322.093 19.8691 320.652 20.535 319.554 21.7457C318.417 22.9686 317.701 24.6031 317.397 26.6492H329.817ZM318.583 41.2266C317.025 40.0643 315.76 38.4056 314.917 36.42C314.035 34.3738 313.594 32.0492 313.594 29.4582C313.574 27.1093 314.005 24.7968 314.839 22.678C315.633 20.6803 316.848 18.9731 318.377 17.7745C319.907 16.5637 321.671 15.9584 323.661 15.9584C325.641 15.9584 327.386 16.5153 328.896 17.6171C330.395 18.731 331.591 20.3534 332.346 22.3027C333.15 24.3125 333.552 26.6371 333.552 29.2524C333.562 29.6035 333.532 29.9425 333.464 30.2815H317.152C317.201 32.1824 317.574 33.8048 318.27 35.1124C318.897 36.3594 319.799 37.3765 320.857 38.0424C321.848 38.6841 322.945 39.011 324.063 39.0231C326.661 39.0231 328.66 37.4491 330.072 34.3133L333.169 36.1536C332.317 38.1634 331.052 39.8585 329.513 41.0934C327.955 42.3284 326.082 42.958 323.906 42.958C321.916 42.958 320.142 42.3768 318.583 41.2266ZM337.1 5.53384H340.629V42.1347H337.1V5.53384ZM357.97 37.8486C359.058 37.0496 359.96 35.8872 360.558 34.507C361.205 33.0541 361.528 31.3712 361.528 29.4703C361.528 27.5573 361.205 25.8865 360.558 24.4336C359.96 23.0412 359.058 21.8789 357.97 21.0677C356.921 20.2928 355.715 19.8933 354.49 19.8933C353.284 19.8933 352.098 20.3049 351.059 21.0677C349.961 21.8789 349.069 23.0291 348.471 24.4215C347.824 25.8744 347.501 27.5452 347.501 29.4582C347.501 31.3712 347.824 33.042 348.471 34.4949C349.069 35.8872 349.961 37.0496 351.059 37.8486C352.098 38.6235 353.284 39.0352 354.49 39.0231C355.715 39.0352 356.921 38.6235 357.97 37.8486ZM349.069 41.2024C347.481 40.0401 346.178 38.3572 345.325 36.3352C344.423 34.277 343.972 31.9886 343.972 29.4582C343.982 26.9398 344.423 24.6515 345.325 22.5933C346.187 20.5713 347.481 18.8884 349.069 17.7261C350.667 16.5516 352.481 15.9584 354.49 15.9584C356.509 15.9584 358.323 16.5516 359.94 17.7261C361.538 18.8884 362.842 20.5592 363.704 22.5933C364.606 24.6515 365.057 26.9398 365.057 29.4582C365.057 31.9886 364.606 34.277 363.704 36.3352C362.842 38.3572 361.538 40.0401 359.94 41.2024C358.323 42.3768 356.509 42.958 354.5 42.958C352.481 42.958 350.677 42.3768 349.069 41.2024ZM381.751 37.8486C382.81 37.0374 383.672 35.8751 384.231 34.507C384.858 33.0541 385.172 31.3712 385.172 29.4703C385.172 27.5573 384.858 25.8865 384.231 24.4336C383.672 23.0533 382.81 21.9031 381.751 21.0798C380.741 20.3049 379.565 19.8933 378.379 19.9054C377.193 19.8933 376.026 20.2928 375.007 21.0556C373.948 21.8547 373.086 23.0049 372.527 24.3852C371.899 25.8259 371.596 27.521 371.596 29.4703C371.596 31.3833 371.899 33.0662 372.527 34.5312C373.144 35.9962 373.968 37.1101 375.007 37.8729C376.026 38.6356 377.193 39.0352 378.379 39.0231C379.575 39.0352 380.741 38.6235 381.751 37.8486ZM368.233 16.7817H371.586V20.5108H371.752C372.419 19.2274 373.37 18.1377 374.615 17.266C375.86 16.3942 377.291 15.9584 378.918 15.9584C380.643 15.9463 382.349 16.5637 383.8 17.7261C385.309 18.9247 386.535 20.5955 387.358 22.5569C388.24 24.6031 388.681 26.9035 388.681 29.4582C388.681 32.0129 388.24 34.3133 387.358 36.3594C386.535 38.333 385.309 39.9917 383.8 41.1903C382.349 42.3526 380.653 42.9701 378.918 42.958C377.291 42.958 375.84 42.5221 374.585 41.6504C373.331 40.7908 372.39 39.689 371.752 38.3572H371.586L371.752 41.8804V53.1888H368.233V16.7817ZM408.14 26.6492C408.071 25.5838 407.836 24.5425 407.434 23.5861C407.022 22.5569 406.355 21.6852 405.424 20.9708C404.503 20.2565 403.326 19.9054 401.885 19.9054C400.415 19.8691 398.974 20.535 397.876 21.7457C396.739 22.9686 396.024 24.6031 395.72 26.6492H408.14ZM396.906 41.2266C395.347 40.0643 394.083 38.4056 393.24 36.42C392.357 34.3738 391.916 32.0492 391.916 29.4582C391.897 27.1093 392.328 24.7968 393.161 22.678C393.955 20.6803 395.181 18.9731 396.7 17.7745C398.229 16.5637 399.994 15.9584 401.983 15.9584C403.964 15.9584 405.718 16.5153 407.218 17.6171C408.718 18.731 409.924 20.3534 410.669 22.3027C411.472 24.3125 411.874 26.6371 411.874 29.2524C411.884 29.6035 411.855 29.9425 411.796 30.2815H395.484C395.533 32.1824 395.906 33.8048 396.592 35.1124C397.229 36.3594 398.121 37.3765 399.18 38.0424C400.18 38.6841 401.278 39.011 402.395 39.0231C404.983 39.0231 406.993 37.4491 408.394 34.3133L411.502 36.1536C410.649 38.1634 409.384 39.8585 407.845 41.0934C406.287 42.3284 404.415 42.958 402.229 42.958C400.239 42.958 398.464 42.3768 396.906 41.2266ZM415.433 16.7817H418.785V20.9224H418.942C419.334 19.5301 420.128 18.3435 421.324 17.3991C422.53 16.4427 423.726 15.9584 424.912 15.9584C425.725 15.9584 426.539 16.1279 427.304 16.479V21.1282C426.568 20.6197 425.598 20.3655 424.412 20.3655C423.441 20.3655 422.5 20.7287 421.696 21.4067C420.853 22.1211 420.157 23.0775 419.687 24.2035C419.197 25.378 418.942 26.6735 418.942 27.9932V42.1468H415.433V16.7817ZM445.419 40.4518C443.086 38.8172 441.155 36.4321 439.831 33.5505C438.469 30.6205 437.782 27.3878 437.782 23.8403C437.782 20.2928 438.469 17.0601 439.831 14.118C441.155 11.2486 443.086 8.85128 445.419 7.21677C447.771 5.55805 450.438 4.68631 453.143 4.71053C455.241 4.69842 457.329 5.18272 459.28 6.15132C461.201 7.0957 462.779 8.43963 464.024 10.1831L461.495 13.3068C460.534 11.8418 459.289 10.7158 457.878 10.0015C456.378 9.22661 454.761 8.83918 453.133 8.85128C451.094 8.83918 449.095 9.48087 447.32 10.7158C445.517 11.9629 444.007 13.779 442.968 15.9826C441.88 18.2588 441.341 20.874 441.341 23.8403C441.341 26.8066 441.89 29.4219 442.978 31.686C444.017 33.8895 445.517 35.7056 447.32 36.9527C449.095 38.1877 451.104 38.8294 453.143 38.8172C455.133 38.8172 456.79 38.4419 458.133 37.667C459.436 36.9285 460.622 35.8993 461.632 34.6281C462.377 33.611 462.965 32.4366 463.367 31.1532C463.818 29.7245 464.083 28.2232 464.151 26.6977H453.221V22.6659H467.465C467.592 23.5497 467.661 24.4336 467.67 25.3295C467.67 27.5573 467.376 29.773 466.798 31.8918C466.23 33.9985 465.288 35.9115 464.024 37.4975C461.24 41.1419 457.613 42.9701 453.143 42.9701C450.428 42.9943 447.761 42.1226 445.419 40.4518ZM471.69 16.7817H475.042V20.9224H475.209C475.591 19.5301 476.385 18.3435 477.591 17.3991C478.787 16.4427 479.983 15.9584 481.169 15.9584C481.982 15.9584 482.796 16.1279 483.57 16.479V21.1282C482.825 20.6197 481.855 20.3655 480.669 20.3655C479.698 20.3655 478.757 20.7287 477.963 21.4067C477.11 22.1211 476.424 23.0775 475.954 24.2035C475.454 25.378 475.199 26.6735 475.209 27.9932V42.1468H471.69V16.7817ZM498.019 37.8486C499.107 37.0496 499.999 35.8872 500.607 34.507C501.254 33.0541 501.578 31.3712 501.578 29.4582C501.578 27.5573 501.254 25.8744 500.607 24.4215C499.999 23.0412 499.107 21.8789 498.019 21.0798C496.961 20.3049 495.765 19.8933 494.539 19.9054C493.324 19.8933 492.138 20.3049 491.099 21.0798C490.011 21.8789 489.109 23.0412 488.511 24.4215C487.864 25.8744 487.54 27.5573 487.54 29.4582C487.54 31.3712 487.864 33.0541 488.511 34.4949C489.109 35.8872 490.001 37.0496 491.099 37.8486C492.138 38.6235 493.324 39.0231 494.53 39.0231C495.755 39.0352 496.961 38.6235 498.019 37.8486ZM489.118 41.2024C487.521 40.0401 486.227 38.3572 485.374 36.3352C484.472 34.277 484.021 31.9886 484.021 29.4582C484.021 26.9398 484.472 24.6515 485.374 22.5933C486.237 20.5713 487.53 18.8884 489.118 17.7261C490.716 16.5516 492.53 15.9584 494.549 15.9584C496.559 15.9584 498.372 16.5516 499.99 17.7261C501.587 18.8884 502.891 20.5592 503.754 22.5811C504.656 24.6515 505.097 26.9398 505.097 29.4582C505.097 31.9886 504.656 34.277 503.754 36.3352C502.891 38.3572 501.587 40.0401 499.99 41.2024C498.372 42.3768 496.559 42.958 494.549 42.958C492.53 42.958 490.716 42.3768 489.118 41.2024ZM510.253 40.2459C508.939 38.4419 508.283 35.9357 508.283 32.7393V16.7817H511.802V32.025C511.802 36.6863 513.497 39.0231 516.899 39.0231C517.987 39.0352 519.056 38.6235 519.938 37.8486C520.84 37.0617 521.545 36.0083 522.006 34.7855C522.486 33.5384 522.732 32.1702 522.732 30.79V16.7817H526.211V42.1468H522.898V38.3572H522.732C522.124 39.6527 521.212 40.7423 519.977 41.6262C518.781 42.51 517.419 42.9701 516.027 42.958C513.488 42.958 511.557 42.062 510.253 40.2459ZM544.317 37.8486C545.375 37.0374 546.238 35.8751 546.797 34.507C547.424 33.0541 547.728 31.3712 547.728 29.4703C547.728 27.5573 547.424 25.8865 546.797 24.4336C546.238 23.0533 545.375 21.9031 544.317 21.0798C543.307 20.3049 542.141 19.8933 540.945 19.9054C539.759 19.8933 538.592 20.2928 537.573 21.0556C536.514 21.8547 535.651 23.0049 535.093 24.3852C534.465 25.8259 534.161 27.521 534.151 29.4703C534.151 31.3833 534.465 33.0662 535.093 34.5312C535.71 35.9962 536.534 37.1101 537.573 37.8729C538.592 38.6356 539.759 39.0352 540.945 39.0231C542.141 39.0352 543.307 38.6235 544.317 37.8486ZM530.799 16.7817H534.151V20.5108H534.318C534.985 19.2274 535.936 18.1377 537.18 17.266C538.416 16.3942 539.857 15.9584 541.484 15.9584C543.219 15.9463 544.915 16.5637 546.375 17.7261C547.885 18.9247 549.11 20.5955 549.934 22.5569C550.816 24.6031 551.257 26.9035 551.257 29.4582C551.257 32.025 550.816 34.3254 549.934 36.3594C549.11 38.333 547.885 39.9917 546.375 41.2024C544.915 42.3647 543.219 42.9701 541.484 42.958C539.857 42.958 538.416 42.5221 537.161 41.6504C535.906 40.7908 534.965 39.689 534.328 38.3572H534.161L534.328 41.8925V53.1888H530.809L530.799 16.7817ZM556.305 40.9239C554.786 39.5558 553.717 37.8608 553.119 35.863L556.217 34.168C556.776 35.7662 557.55 37.0011 558.56 37.8486C559.521 38.6841 560.667 39.132 561.854 39.132C563.177 39.132 564.275 38.7688 565.137 38.0545C566.01 37.3401 566.441 36.4684 566.451 35.4514C566.461 34.4828 566.098 33.5747 565.471 32.9936C564.824 32.3519 563.716 31.7828 562.138 31.3106L559.324 30.4268C557.874 30.0393 556.511 29.216 555.374 28.0295C554.286 26.8672 553.737 25.3295 553.737 23.4166C553.737 21.8547 554.1 20.5108 554.835 19.3848C555.609 18.2346 556.609 17.3507 557.756 16.8301C559.021 16.2368 560.373 15.9463 561.726 15.9584C563.412 15.9341 565.079 16.4548 566.549 17.4718C567.951 18.4041 569.039 19.9175 569.637 21.7457L566.529 23.3802C566.137 22.2179 565.422 21.2614 564.52 20.6682C563.589 20.0749 562.559 19.7843 561.52 19.7964C560.491 19.7843 559.481 20.1112 558.599 20.765C557.727 21.4188 557.295 22.2421 557.295 23.2713C557.266 24.1067 557.589 24.8937 558.138 25.3659C558.707 25.8865 559.609 26.3466 560.854 26.7461L563.912 27.6663C565.951 28.3201 567.48 29.2766 568.49 30.56C569.47 31.7707 570.019 33.4173 570 35.1366C570.009 36.5653 569.647 37.9697 568.96 39.1199C568.274 40.3186 567.304 41.2508 566.069 41.941C564.824 42.619 563.412 42.958 561.844 42.958C559.668 42.958 557.825 42.28 556.305 40.9239ZM32.6228 33.6595L9.72406 17.3265C6.58723 15.1351 2.60739 16.5153 0.842932 20.3897C-0.901923 24.2035 0.14695 29.0465 3.20535 31.2743L26.0943 47.6073C29.2704 49.714 33.2208 48.2611 34.9363 44.3382C36.5831 40.5849 35.5636 35.8993 32.6228 33.6595ZM78.2832 17.3265L55.3844 0.99354C52.228 -1.14948 48.2677 0.291308 46.5327 4.18991C44.8564 7.96744 45.8857 12.7015 48.8657 14.9292L71.7645 31.2743C74.8817 33.49 78.8713 32.1702 80.6652 28.3201C82.4689 24.4699 81.4004 19.5422 78.2832 17.3265ZM70.8529 33.2115L60.1681 25.5838L48.8657 33.6595C45.7485 35.8751 44.68 40.8029 46.4739 44.653C48.2775 48.5153 52.2672 49.835 55.3844 47.6073L73.7936 34.4828C72.7545 34.2891 71.7645 33.8532 70.8529 33.2115ZM10.6259 15.3772L21.3107 23.0049L32.6228 14.9413C35.6911 12.6046 36.6419 7.64054 34.75 3.8509C32.9365 0.218662 29.1429 -1.04051 26.0943 0.99354L7.69493 14.118C8.72419 14.3117 9.72406 14.7355 10.6259 15.3772Z" fill="#F7F7F7"/>
</svg>
