<svg width="604" height="151" viewBox="0 0 604 151" fill="none" xmlns="http://www.w3.org/2000/svg">
<path d="M54.0451 99.2392V55.0812C49.5889 51.4401 44.0317 49.2162 38.1525 49.2162C25.4281 49.2162 17.9596 58.8774 17.9596 77.0826C17.9596 94.4914 24.9503 104.142 37.8305 104.142C43.5539 104.142 49.4331 102.249 54.0451 99.2392ZM77.5723 110.638L60.8799 119.658L55.4681 107.949C49.9109 114.755 41.6426 119.658 30.9957 119.658C10.647 119.658 0 102.88 0 76.9171C0 48.7507 12.5582 33.5452 32.5849 33.5452C41.9646 33.5452 49.2773 37.0311 54.0451 43.5271V2.04809H71.2049V97.9773L77.5723 110.638ZM107.446 66.6353H147.977C147.188 54.2847 141.309 48.4301 130.34 48.4301C118.415 48.4301 110.147 55.2363 107.446 66.6353ZM162.758 78.4997H106.49C107.612 92.9088 118.893 102.56 136.697 102.56C145.754 102.56 155.612 100.667 162.281 97.1808L156.879 114.755C151.322 117.755 141.942 119.658 131.129 119.658C105.545 119.658 88.6867 102.404 88.6867 76.131C88.6867 49.692 104.745 33.5555 130.34 33.5555C151.478 33.5555 164.825 45.5855 164.825 65.0527C164.825 69.4799 164.036 74.7035 162.758 78.4997ZM204.567 117.6L172.138 35.614H191.053L212.192 92.9088L214.581 100.036H215.214L217.593 92.9088L238.586 35.614H257.179L224.906 117.6H204.567ZM313.447 35.7691H350.633L348.255 48.9059H311.058L298.022 122.668C294.365 143.242 280.54 151 261.147 151C252.245 151 248.111 149.738 243.665 148.786L243.343 135.484C247.799 136.281 253.045 136.756 260.357 136.756C271.96 136.756 279.584 132.164 281.34 122.513L294.365 48.9059H268.459L270.849 35.7691H296.754L298.022 28.1664C301.678 7.74757 315.348 0 334.585 0C343.643 0 348.255 1.26195 352.223 2.21359L352.545 15.8261C348.099 14.7193 342.853 14.2435 335.541 14.2435C324.094 14.2435 316.469 18.8259 314.714 28.487L313.447 35.7691ZM372.093 66.6353H412.625C411.835 54.2847 405.946 48.4301 394.987 48.4301C383.062 48.4301 374.794 55.2363 372.093 66.6353ZM427.406 78.4997H371.138C372.249 92.9088 383.54 102.56 401.344 102.56C410.402 102.56 420.259 100.667 426.928 97.1808L421.527 114.755C415.969 117.755 406.59 119.658 395.776 119.658C370.182 119.658 353.334 102.404 353.334 76.131C353.334 49.692 369.393 33.5555 394.987 33.5555C416.125 33.5555 429.473 45.5855 429.473 65.0527C429.473 69.4799 428.683 74.7035 427.406 78.4997ZM445.843 112.697L444.732 94.3362C452.044 99.3944 465.392 103.832 479.384 103.832C490.031 103.832 497.665 100.501 497.665 93.0639C497.665 77.5584 446.477 91.9571 446.477 60.3048C446.477 45.5751 457.612 33.0797 484.151 33.0797C500.366 33.0797 512.758 37.0311 512.758 46.8474C512.758 49.8575 511.491 52.3918 510.224 54.7605C503.223 51.4401 492.254 49.061 483.04 49.061C470.326 49.061 463.647 53.8089 463.647 59.0325C463.647 72.8002 515.459 60.7807 515.459 91.6468C515.459 108.89 500.21 119.658 477.472 119.658C462.058 119.658 450.455 114.755 445.843 112.697ZM604 100.191L600.499 116.172C596.365 117.92 588.097 119.658 580.473 119.658C559.968 119.658 551.233 109.056 551.233 94.0155V50.0127H527.861V35.614H551.233V13.1367H568.392V35.614H601.611V50.0127H568.392V88.7919C568.392 99.3944 573.96 104.142 583.651 104.142C589.219 104.142 599.388 102.88 604 100.191Z" fill="#2B83FC"/>
</svg>
