<svg width="17" height="17" viewBox="0 0 17 17" fill="none" xmlns="http://www.w3.org/2000/svg">
<path d="M10.7494 15.5833V14.8833V14.8685C10.753 14.4824 11.0696 14.1703 11.4611 14.1667L11.5142 14.1666C12.5282 14.1585 13.3994 13.4542 13.6063 12.4752L13.6138 12.4384L13.9816 10.625L14.6484 10.2963C15.0052 10.1203 15.1836 10.0323 15.2222 9.87106C15.2608 9.70977 15.1411 9.55238 14.9018 9.23766L13.5507 7.46109C13.4162 7.28429 13.349 7.19589 13.3129 7.10239C13.277 7.00886 13.2658 6.87633 13.2437 6.61126C13.0004 3.70252 10.5295 1.41667 7.51721 1.41667C4.34365 1.41667 1.771 3.95372 1.771 7.08334C1.771 9.03104 2.7674 10.7492 4.28495 11.7692M4.28495 11.7692V15.5833M4.28495 11.7692C4.72401 12.0643 5.2067 12.3009 5.72149 12.4678" stroke="#F7F7F7" stroke-width="1.5" stroke-linecap="round" stroke-linejoin="round"/>
<path d="M9.9165 6.375L10.5681 6.93663C10.842 7.17272 10.979 7.2908 10.979 7.4375C10.979 7.5842 10.842 7.70227 10.5681 7.93836L9.9165 8.5" stroke="#F7F7F7" stroke-width="1.5" stroke-linecap="round" stroke-linejoin="round"/>
<path d="M4.9585 6.375L4.30689 6.93663C4.03297 7.17272 3.896 7.2908 3.896 7.4375C3.896 7.5842 4.03296 7.70227 4.30689 7.93836L4.9585 8.5" stroke="#F7F7F7" stroke-width="1.5" stroke-linecap="round" stroke-linejoin="round"/>
<path d="M8.14567 5.66667L6.729 9.20834" stroke="#F7F7F7" stroke-width="1.5" stroke-linecap="round" stroke-linejoin="round"/>
</svg>
