<svg width="17" height="17" viewBox="0 0 17 17" fill="none" xmlns="http://www.w3.org/2000/svg">
<path d="M3.5415 5.66667C3.54887 3.79356 3.61801 2.79155 4.26676 2.14281C4.99289 1.41667 6.16158 1.41667 8.49899 1.41667C10.8363 1.41667 12.005 1.41667 12.7311 2.14281C13.3799 2.79155 13.449 3.79356 13.4564 5.66667M3.5415 11.3333C3.54887 13.2065 3.61801 14.2085 4.26676 14.8572C4.99289 15.5833 6.16158 15.5833 8.49899 15.5833C10.8363 15.5833 12.005 15.5833 12.7311 14.8572C13.3799 14.2085 13.449 13.2065 13.4564 11.3333" stroke="#F7F7F7" stroke-width="1.5" stroke-linecap="round"/>
<path d="M7.7915 13.4583H9.20817" stroke="#F7F7F7" stroke-width="1.5" stroke-linecap="round" stroke-linejoin="round"/>
<path d="M11.3335 7.08333L12.2023 7.83218C12.5676 8.14696 12.7502 8.30442 12.7502 8.49999C12.7502 8.69557 12.5676 8.85303 12.2023 9.16781L11.3335 9.91666" stroke="#F7F7F7" stroke-width="1.5" stroke-linecap="round" stroke-linejoin="round"/>
<path d="M5.66667 7.08333L4.79787 7.83218C4.43262 8.14696 4.25 8.30442 4.25 8.49999C4.25 8.69557 4.43262 8.85303 4.79787 9.16781L5.66667 9.91666" stroke="#F7F7F7" stroke-width="1.5" stroke-linecap="round" stroke-linejoin="round"/>
<path d="M9.20817 6.375L7.7915 10.625" stroke="#F7F7F7" stroke-width="1.5" stroke-linecap="round" stroke-linejoin="round"/>
</svg>
