<svg width="17" height="17" viewBox="0 0 17 17" fill="none" xmlns="http://www.w3.org/2000/svg">
<path d="M1.771 8.49999C1.771 5.32784 1.771 3.74176 2.75646 2.75629C3.74193 1.77083 5.32801 1.77083 8.50016 1.77083C11.6723 1.77083 13.2584 1.77083 14.2439 2.75629C15.2293 3.74176 15.2293 5.32784 15.2293 8.49999C15.2293 11.6721 15.2293 13.2582 14.2439 14.2437C13.2584 15.2292 11.6723 15.2292 8.50016 15.2292C5.32801 15.2292 3.74193 15.2292 2.75646 14.2437C1.771 13.2582 1.771 11.6721 1.771 8.49999Z" stroke="#F7F7F7" stroke-width="1.5"/>
<path d="M1.771 6.375H15.2293" stroke="#F7F7F7" stroke-width="1.5" stroke-linejoin="round"/>
<path d="M9.2085 9.20833H12.0418" stroke="#F7F7F7" stroke-width="1.5" stroke-linecap="round" stroke-linejoin="round"/>
<path d="M9.2085 12.0417H10.6252" stroke="#F7F7F7" stroke-width="1.5" stroke-linecap="round" stroke-linejoin="round"/>
<path d="M4.95801 4.25H4.96437" stroke="#F7F7F7" stroke-width="2" stroke-linecap="round" stroke-linejoin="round"/>
<path d="M7.7915 4.25H7.79788" stroke="#F7F7F7" stroke-width="2" stroke-linecap="round" stroke-linejoin="round"/>
<path d="M6.375 6.375V15.2292" stroke="#F7F7F7" stroke-width="1.5" stroke-linecap="round" stroke-linejoin="round"/>
</svg>
