<svg width="17" height="17" viewBox="0 0 17 17" fill="none" xmlns="http://www.w3.org/2000/svg">
<path d="M13.4585 14.5208C13.7599 14.3855 14.0177 14.21 14.2439 13.9822C15.2293 12.9894 15.2293 11.3915 15.2293 8.19578C15.2293 5.00009 15.2293 3.40223 14.2439 2.40945C13.2584 1.41667 11.6723 1.41667 8.50016 1.41667C5.32801 1.41667 3.74193 1.41667 2.75646 2.40945C1.771 3.40223 1.771 5.00009 1.771 8.19578C1.771 11.3915 1.771 12.9894 2.75646 13.9822C2.98264 14.21 3.24045 14.3855 3.54183 14.5208" stroke="#F7F7F7" stroke-width="1.5" stroke-linecap="round"/>
<path d="M1.771 6.02083H15.2293" stroke="#F7F7F7" stroke-width="1.5" stroke-linejoin="round"/>
<path d="M4.95801 3.89583H4.96437" stroke="#F7F7F7" stroke-width="2" stroke-linecap="round" stroke-linejoin="round"/>
<path d="M7.7915 3.89583H7.79788" stroke="#F7F7F7" stroke-width="2" stroke-linecap="round" stroke-linejoin="round"/>
<path d="M6.72933 11.599C6.72933 11.8923 6.96718 12.1302 7.26058 12.1302C7.55397 12.1302 7.79183 11.8923 7.79183 11.599H6.72933ZM9.2085 11.599C9.2085 11.8923 9.44635 12.1302 9.73975 12.1302C10.0331 12.1302 10.271 11.8923 10.271 11.599H9.2085ZM7.88037 12.1302H9.11995V11.0677H7.88037V12.1302ZM9.11995 15.0521H7.88037V16.1146H9.11995V15.0521ZM7.88037 15.0521C7.58379 15.0521 7.38985 15.0517 7.24089 15.0409C7.09738 15.0303 7.03661 15.0121 7.00171 14.9967L6.57071 15.9678C6.76361 16.0534 6.96112 16.0857 7.1634 16.1006C7.3601 16.1149 7.59938 16.1146 7.88037 16.1146V15.0521ZM5.48975 13.5911C5.48975 13.8937 5.4895 14.1456 5.50262 14.3516C5.516 14.5617 5.54483 14.761 5.61985 14.955L6.61086 14.5719C6.59152 14.5218 6.57318 14.4444 6.56297 14.2841C6.55249 14.1196 6.55225 13.9073 6.55225 13.5911H5.48975ZM7.00171 14.9967C6.83353 14.922 6.68876 14.7734 6.61086 14.5719L5.61985 14.955C5.79356 15.4044 6.13143 15.7729 6.57071 15.9678L7.00171 14.9967ZM10.4481 13.5911C10.4481 13.9073 10.4478 14.1196 10.4374 14.2841C10.4272 14.4444 10.4088 14.5218 10.3894 14.5719L11.3805 14.955C11.4555 14.761 11.4843 14.5617 11.4977 14.3516C11.5109 14.1456 11.5106 13.8937 11.5106 13.5911H10.4481ZM9.11995 16.1146C9.40095 16.1146 9.64023 16.1149 9.83693 16.1006C10.0392 16.0857 10.2367 16.0534 10.4296 15.9678L9.99864 14.9967C9.96372 15.0121 9.90295 15.0303 9.75944 15.0409C9.61048 15.0517 9.41653 15.0521 9.11995 15.0521V16.1146ZM10.3894 14.5719C10.3116 14.7734 10.1668 14.922 9.99864 14.9967L10.4296 15.9678C10.8689 15.7729 11.2068 15.4044 11.3805 14.955L10.3894 14.5719ZM9.11995 12.1302C9.41653 12.1302 9.61048 12.1306 9.75944 12.1414C9.90295 12.1519 9.96372 12.1702 9.99864 12.1856L10.4296 11.2145C10.2367 11.1288 10.0392 11.0965 9.83693 11.0817C9.64023 11.0673 9.40095 11.0677 9.11995 11.0677V12.1302ZM11.5106 13.5911C11.5106 13.2885 11.5109 13.0367 11.4977 12.8307C11.4843 12.6206 11.4555 12.4213 11.3805 12.2272L10.3894 12.6104C10.4088 12.6605 10.4272 12.7379 10.4374 12.8982C10.4478 13.0627 10.4481 13.2749 10.4481 13.5911H11.5106ZM9.99864 12.1856C10.1668 12.2603 10.3116 12.4089 10.3894 12.6104L11.3805 12.2272C11.2068 11.7779 10.8689 11.4094 10.4296 11.2145L9.99864 12.1856ZM7.88037 11.0677C7.59938 11.0677 7.3601 11.0673 7.1634 11.0817C6.96112 11.0965 6.76361 11.1288 6.57071 11.2145L7.00171 12.1856C7.03661 12.1702 7.09738 12.1519 7.24089 12.1414C7.38985 12.1306 7.58379 12.1302 7.88037 12.1302V11.0677ZM6.55225 13.5911C6.55225 13.2749 6.55249 13.0627 6.56297 12.8982C6.57318 12.7379 6.59152 12.6605 6.61086 12.6104L5.61985 12.2272C5.54483 12.4213 5.516 12.6206 5.50262 12.8307C5.4895 13.0367 5.48975 13.2885 5.48975 13.5911H6.55225ZM6.57071 11.2145C6.13143 11.4094 5.79356 11.7779 5.61985 12.2272L6.61086 12.6104C6.68876 12.4089 6.83353 12.2603 7.00171 12.1856L6.57071 11.2145ZM7.79183 11.599V10.4036H6.72933V11.599H7.79183ZM9.2085 10.4036V11.599H10.271V10.4036H9.2085ZM8.50016 9.73958C8.90972 9.73958 9.2085 10.0549 9.2085 10.4036H10.271C10.271 9.43202 9.45981 8.67708 8.50016 8.67708V9.73958ZM7.79183 10.4036C7.79183 10.0549 8.0906 9.73958 8.50016 9.73958V8.67708C7.54051 8.67708 6.72933 9.43202 6.72933 10.4036H7.79183Z" fill="#F7F7F7"/>
</svg>
